<svg width="3847" height="2867" viewBox="0 0 3847 2867" fill="none" xmlns="http://www.w3.org/2000/svg">
<path d="M3846.85 2519.38H0.692383V2521.31H3846.85V2519.38Z" fill="#EBEBEB"/>
<path d="M3461.46 2643.15H3206.69V2645.08H3461.46V2643.15Z" fill="#EBEBEB"/>
<path d="M2548.54 2664.08H2481.69V2666H2548.54V2664.08Z" fill="#EBEBEB"/>
<path d="M3199 2571.77H3051.38V2573.69H3199V2571.77Z" fill="#EBEBEB"/>
<path d="M736.462 2584.69H404.231V2586.62H736.462V2584.69Z" fill="#EBEBEB"/>
<path d="M853.692 2584.69H805V2586.62H853.692V2584.69Z" fill="#EBEBEB"/>
<path d="M1732.62 2617.15H1012V2619.08H1732.62V2617.15Z" fill="#EBEBEB"/>
<path d="M1823.77 2176.31H338.461C326.826 2176.29 315.673 2171.65 307.453 2163.42C299.232 2155.18 294.615 2144.02 294.615 2132.38V44.4618C294.717 32.8928 299.378 21.8309 307.588 13.6789C315.797 5.52686 326.892 0.943158 338.461 0.92334H1823.77C1835.42 0.92334 1846.59 5.55094 1854.83 13.7881C1863.06 22.0253 1867.69 33.1973 1867.69 44.8464V2132.38C1867.69 2144.03 1863.06 2155.21 1854.83 2163.44C1846.59 2171.68 1835.42 2176.31 1823.77 2176.31ZM338.461 2.46181C327.336 2.48218 316.673 6.91615 308.813 14.7905C300.953 22.6648 296.538 33.336 296.538 44.4618V2132.38C296.538 2143.51 300.953 2154.18 308.813 2162.06C316.673 2169.93 327.336 2174.36 338.461 2174.38H1823.77C1834.9 2174.36 1845.57 2169.93 1853.45 2162.06C1861.32 2154.19 1865.75 2143.52 1865.77 2132.38V44.4618C1865.75 33.329 1861.32 22.6579 1853.45 14.7858C1845.57 6.91365 1834.9 2.48214 1823.77 2.46181H338.461Z" fill="#EBEBEB"/>
<path d="M3487.69 2176.31H2002.31C1990.66 2176.29 1979.5 2171.65 1971.27 2163.42C1963.04 2155.19 1958.41 2144.03 1958.38 2132.38V44.4618C1958.51 32.8857 1963.18 21.8239 1971.41 13.6741C1979.63 5.52418 1990.73 0.942942 2002.31 0.92334H3487.69C3499.25 0.963374 3510.32 5.55603 3518.52 13.7059C3526.71 21.8557 3531.36 32.906 3531.46 44.4618V2132.38C3531.46 2144.01 3526.86 2155.16 3518.65 2163.39C3510.45 2171.62 3499.32 2176.27 3487.69 2176.31ZM2002.31 2.46181C1991.17 2.48214 1980.5 6.91365 1972.63 14.7858C1964.76 22.6579 1960.33 33.329 1960.31 44.4618V2132.38C1960.33 2143.52 1964.76 2154.19 1972.63 2162.06C1980.5 2169.93 1991.17 2174.36 2002.31 2174.38H3487.69C3498.83 2174.36 3509.5 2169.93 3517.37 2162.06C3525.24 2154.19 3529.67 2143.52 3529.69 2132.38V44.4618C3529.67 33.329 3525.24 22.6579 3517.37 14.7858C3509.5 6.91365 3498.83 2.48214 3487.69 2.46181H2002.31Z" fill="#EBEBEB"/>
<path d="M1266 83.6157H717.923V1942.92H1266V83.6157Z" fill="#FAFAFA"/>
<path d="M1184.38 83.6157H1152.38L961.231 1942.92H993.231L1184.38 83.6157Z" fill="#F5F5F5"/>
<path d="M1256.31 90.7695H714.385V107.154H1256.31V90.7695Z" fill="#E0E0E0"/>
<path d="M1256.31 1926.62H714.385V1961.69H1256.31V1926.62Z" fill="#EBEBEB"/>
<path d="M1247.31 1960.15H735.231V1961.69H1247.31V1960.15Z" fill="#EBEBEB"/>
<path d="M735.231 90.7695H1247.31V1960.15H1278V67.7695H704.539V1960.15H735.231V90.7695Z" fill="#EBEBEB"/>
<path d="M1875.92 83.6157H1327.85V1942.92H1875.92V83.6157Z" fill="#FAFAFA"/>
<path d="M1723.85 83.6157H1549.15L1358 1942.92H1532.69L1723.85 83.6157Z" fill="#F5F5F5"/>
<path d="M1881.62 90.7695H1324.31V107.154H1881.62V90.7695Z" fill="#E0E0E0"/>
<path d="M1881.62 1926.62H1324.31V1961.69H1881.62V1926.62Z" fill="#EBEBEB"/>
<path d="M1857.23 1960.15H1345.15V1961.69H1857.23V1960.15Z" fill="#EBEBEB"/>
<path d="M1345.15 90.7695H1857.23V1960.15H1887.85V67.7695H1314.46V1960.15H1345.15V90.7695Z" fill="#EBEBEB"/>
<path d="M2470.38 83.6157H1937.69V1942.92H2470.38V83.6157Z" fill="#FAFAFA"/>
<path d="M2239.54 83.6157H2207.54L2016.38 1942.92H2048.38L2239.54 83.6157Z" fill="#F5F5F5"/>
<path d="M2476.15 90.7695H1934.23V107.154H2476.15V90.7695Z" fill="#E0E0E0"/>
<path d="M2476.15 1926.62H1934.23V1961.69H2476.15V1926.62Z" fill="#EBEBEB"/>
<path d="M2467.15 1960.15H1955.08V1961.69H2467.15V1960.15Z" fill="#EBEBEB"/>
<path d="M1955.08 90.7695H2467.08V1960.15H2497.77V67.7695H1924.38V1960.15H1955.08V90.7695Z" fill="#EBEBEB"/>
<path d="M3095.69 83.6157H2547.62V1942.92H3095.69V83.6157Z" fill="#FAFAFA"/>
<path d="M3042.08 83.6157H2867.39L2676.15 1942.92H2850.92L3042.08 83.6157Z" fill="#F5F5F5"/>
<path d="M3086 90.7695H2544.08V107.154H3086V90.7695Z" fill="#E0E0E0"/>
<path d="M3086 1926.62H2544.08V1961.69H3086V1926.62Z" fill="#EBEBEB"/>
<path d="M2564.92 90.7695H3077V1960.15H3107.69V67.7695H2534.31V1960.15H2564.92V90.7695Z" fill="#EBEBEB"/>
<path d="M3077 1960.15H2564.92V1961.69H3077V1960.15Z" fill="#EBEBEB"/>
<path d="M1134.85 1515.23H896.923V1926.69H1134.85V1515.23Z" fill="#EBEBEB"/>
<path d="M1089.15 1457.69V1560.92H1070.46H961.384H942.615V1457.69H1089.15Z" fill="#EBEBEB"/>
<path d="M1089.15 1560.92H1119.62V1530.46H1089.15V1560.92Z" fill="#FAFAFA"/>
<path d="M1030.23 1560.92H1060.69V1530.46H1030.23V1560.92Z" fill="#FAFAFA"/>
<path d="M971.231 1560.92H1001.69V1530.46H971.231V1560.92Z" fill="#FAFAFA"/>
<path d="M912.231 1560.92H942.692V1530.46H912.231V1560.92Z" fill="#F0F0F0"/>
<path d="M1089.15 1616.23H1119.62V1585.77H1089.15V1616.23Z" fill="#F0F0F0"/>
<path d="M1030.23 1616.23H1060.69V1585.77H1030.23V1616.23Z" fill="#F0F0F0"/>
<path d="M971.231 1616.23H1001.69V1585.77H971.231V1616.23Z" fill="#FAFAFA"/>
<path d="M912.231 1616.23H942.692V1585.77H912.231V1616.23Z" fill="#FAFAFA"/>
<path d="M1089.15 1671.62H1119.62V1641.15H1089.15V1671.62Z" fill="#F0F0F0"/>
<path d="M1030.23 1671.62H1060.69V1641.15H1030.23V1671.62Z" fill="#FAFAFA"/>
<path d="M971.231 1671.62H1001.69V1641.15H971.231V1671.62Z" fill="#FAFAFA"/>
<path d="M1030.23 1513.08H1060.69V1482.62H1030.23V1513.08Z" fill="#FAFAFA"/>
<path d="M971.231 1513.08H1001.69V1482.62H971.231V1513.08Z" fill="#F0F0F0"/>
<path d="M912.231 1671.62H942.692V1641.15H912.231V1671.62Z" fill="#F0F0F0"/>
<path d="M1089.15 1727H1119.62V1696.54H1089.15V1727Z" fill="#FAFAFA"/>
<path d="M1030.23 1727H1060.69V1696.54H1030.23V1727Z" fill="#F0F0F0"/>
<path d="M971.231 1727H1001.69V1696.54H971.231V1727Z" fill="#F0F0F0"/>
<path d="M912.231 1727H942.692V1696.54H912.231V1727Z" fill="#FAFAFA"/>
<path d="M1089.15 1782.38H1119.62V1751.92H1089.15V1782.38Z" fill="#F0F0F0"/>
<path d="M1030.23 1782.38H1060.69V1751.92H1030.23V1782.38Z" fill="#FAFAFA"/>
<path d="M971.231 1782.38H1001.69V1751.92H971.231V1782.38Z" fill="#FAFAFA"/>
<path d="M912.231 1782.38H942.692V1751.92H912.231V1782.38Z" fill="#F0F0F0"/>
<path d="M1089.15 1837.69H1119.62V1807.23H1089.15V1837.69Z" fill="#F0F0F0"/>
<path d="M1030.23 1837.69H1060.69V1807.23H1030.23V1837.69Z" fill="#FAFAFA"/>
<path d="M971.231 1837.69H1001.69V1807.23H971.231V1837.69Z" fill="#F0F0F0"/>
<path d="M912.231 1837.69H942.692V1807.23H912.231V1837.69Z" fill="#FAFAFA"/>
<path d="M1089.15 1893.08H1119.62V1862.62H1089.15V1893.08Z" fill="#FAFAFA"/>
<path d="M1030.23 1893.08H1060.69V1862.62H1030.23V1893.08Z" fill="#FAFAFA"/>
<path d="M971.231 1893.08H1001.69V1862.62H971.231V1893.08Z" fill="#F0F0F0"/>
<path d="M912.231 1893.08H942.692V1862.62H912.231V1893.08Z" fill="#F0F0F0"/>
<path d="M2811 1665.08H2597.85V1926.62H2811V1665.08Z" fill="#F0F0F0"/>
<path d="M2616.38 1694.15H2665.92H2679.62H2693.23V1721.39H2679.62H2665.92H2616.38V1694.15Z" fill="#E6E6E6"/>
<path d="M2616.38 1747H2665.92H2679.62H2693.23V1774.31H2679.62H2665.92H2616.38V1747Z" fill="#FAFAFA"/>
<path d="M2616.38 1799.85H2665.92H2679.62H2693.23V1827.15H2679.62H2665.92H2616.38V1799.85Z" fill="#E6E6E6"/>
<path d="M2616.38 1852.69H2665.92H2687H2693.23V1880H2687H2665.92H2616.38V1852.69Z" fill="#FAFAFA"/>
<path d="M2715.54 1694.15H2765.15H2778.77H2792.39V1721.39H2778.77H2765.15H2715.54V1694.15Z" fill="#FAFAFA"/>
<path d="M2715.54 1747H2765.15H2784.39H2792.39V1774.31H2784.39H2765.15H2715.54V1747Z" fill="#FAFAFA"/>
<path d="M2715.54 1799.85H2765.15H2778.77H2792.39V1827.15H2778.77H2765.15H2715.54V1799.85Z" fill="#E6E6E6"/>
<path d="M2715.54 1852.69H2765.15H2778.77H2792.39V1880H2778.77H2765.15H2715.54V1852.69Z" fill="#FAFAFA"/>
<path d="M1783.85 1764.15H1590.15V1926.69H1783.85V1764.15Z" fill="#F0F0F0"/>
<path d="M1746.69 1809.23H1771.46V1784.46H1746.69V1809.23Z" fill="#FAFAFA"/>
<path d="M1698.69 1809.23H1723.46V1784.46H1698.69V1809.23Z" fill="#FAFAFA"/>
<path d="M1650.62 1809.23H1675.38V1784.46H1650.62V1809.23Z" fill="#FAFAFA"/>
<path d="M1602.62 1809.23H1627.38V1784.46H1602.62V1809.23Z" fill="#FAFAFA"/>
<path d="M1746.69 1854.23H1771.46V1829.46H1746.69V1854.23Z" fill="#FAFAFA"/>
<path d="M1698.69 1854.23H1723.46V1829.46H1698.69V1854.23Z" fill="#FAFAFA"/>
<path d="M1650.62 1854.23H1675.38V1829.46H1650.62V1854.23Z" fill="#FAFAFA"/>
<path d="M1602.62 1854.23H1627.38V1829.46H1602.62V1854.23Z" fill="#E6E6E6"/>
<path d="M1746.69 1899.31H1771.46V1874.54H1746.69V1899.31Z" fill="#E6E6E6"/>
<path d="M1698.69 1899.31H1723.46V1874.54H1698.69V1899.31Z" fill="#E6E6E6"/>
<path d="M1650.62 1899.31H1675.38V1874.54H1650.62V1899.31Z" fill="#FAFAFA"/>
<path d="M1602.62 1899.31H1627.38V1874.54H1602.62V1899.31Z" fill="#E6E6E6"/>
<path d="M1563.92 1644H1370.23V1926.69H1563.92V1644Z" fill="#F0F0F0"/>
<path d="M1551.54 1656.38H1478.69V1726.23H1551.54V1656.38Z" fill="#FAFAFA"/>
<path d="M1455.46 1656.38H1382.62V1726.23H1455.46V1656.38Z" fill="#FAFAFA"/>
<path d="M1551.54 1746.46H1478.69V1816.31H1551.54V1746.46Z" fill="#FAFAFA"/>
<path d="M1455.46 1746.46H1382.62V1816.31H1455.46V1746.46Z" fill="#FAFAFA"/>
<path d="M1551.54 1836.54H1478.69V1906.39H1551.54V1836.54Z" fill="#FAFAFA"/>
<path d="M1455.46 1836.54H1382.62V1906.39H1455.46V1836.54Z" fill="#FAFAFA"/>
<path d="M1923.77 2866.77C2747.48 2866.77 3415.23 2827.78 3415.23 2779.69C3415.23 2731.6 2747.48 2692.62 1923.77 2692.62C1100.06 2692.62 432.308 2731.6 432.308 2779.69C432.308 2827.78 1100.06 2866.77 1923.77 2866.77Z" fill="#F5F5F5"/>
<path d="M3420.46 190.231V1884.38L3216.62 2088.23H2036.54V190.231H3420.46Z" fill="#407BFF"/>
<path opacity="0.8" d="M3420.46 190.231V1884.38L3216.62 2088.23H2036.54V190.231H3420.46Z" fill="white"/>
<path opacity="0.2" d="M3216.62 2088.23V1890.38H3420.46L3220.62 2090.23" fill="black"/>
<path opacity="0.1" d="M2560.23 354.769H2178.54C2173.17 354.769 2168.03 352.638 2164.23 348.844C2160.44 345.05 2158.31 339.904 2158.31 334.539C2158.3 331.875 2158.81 329.236 2159.83 326.773C2160.84 324.31 2162.33 322.07 2164.21 320.184C2166.09 318.297 2168.32 316.8 2170.78 315.778C2173.24 314.757 2175.88 314.231 2178.54 314.231H2560.23C2565.6 314.251 2570.75 316.4 2574.54 320.206C2578.33 324.012 2580.46 329.166 2580.46 334.539C2580.46 339.904 2578.33 345.05 2574.54 348.844C2570.74 352.638 2565.6 354.769 2560.23 354.769Z" fill="black"/>
<path opacity="0.1" d="M3252.54 518.923H2332.38C2329.72 518.923 2327.08 518.397 2324.63 517.376C2322.17 516.354 2319.93 514.857 2318.05 512.971C2316.17 511.084 2314.68 508.845 2313.67 506.381C2312.66 503.918 2312.14 501.279 2312.15 498.616C2312.15 493.25 2314.29 488.104 2318.08 484.31C2321.87 480.516 2327.02 478.385 2332.38 478.385H3252.54C3257.9 478.385 3263.05 480.516 3266.84 484.31C3270.64 488.104 3272.77 493.25 3272.77 498.616C3272.77 503.988 3270.64 509.142 3266.85 512.948C3263.06 516.754 3257.91 518.903 3252.54 518.923Z" fill="black"/>
<path opacity="0.1" d="M3252.54 598.693H2178.54C2173.17 598.693 2168.03 596.561 2164.23 592.767C2160.44 588.973 2158.31 583.828 2158.31 578.462C2158.3 575.799 2158.81 573.16 2159.83 570.696C2160.84 568.233 2162.33 565.994 2164.21 564.107C2166.09 562.22 2168.32 560.723 2170.78 559.702C2173.24 558.68 2175.88 558.154 2178.54 558.154H3252.54C3257.91 558.175 3263.06 560.323 3266.85 564.129C3270.64 567.936 3272.77 573.089 3272.77 578.462C3272.77 583.828 3270.64 588.973 3266.84 592.767C3263.05 596.561 3257.9 598.693 3252.54 598.693Z" fill="black"/>
<path opacity="0.1" d="M3252.54 688.846H2178.54C2175.88 688.847 2173.24 688.321 2170.78 687.299C2168.32 686.278 2166.09 684.781 2164.21 682.894C2162.33 681.007 2160.84 678.768 2159.83 676.304C2158.81 673.841 2158.3 671.202 2158.31 668.539C2158.31 663.173 2160.44 658.028 2164.23 654.234C2168.03 650.44 2173.17 648.308 2178.54 648.308H3252.54C3257.9 648.308 3263.05 650.44 3266.84 654.234C3270.64 658.028 3272.77 663.173 3272.77 668.539C3272.77 673.911 3270.64 679.065 3266.85 682.871C3263.06 686.678 3257.91 688.826 3252.54 688.846Z" fill="black"/>
<path opacity="0.1" d="M3252.54 778.923H2178.54C2173.17 778.923 2168.03 776.792 2164.23 772.998C2160.44 769.204 2158.31 764.058 2158.31 758.693C2158.31 753.327 2160.44 748.181 2164.23 744.387C2168.03 740.593 2173.17 738.462 2178.54 738.462H3252.54C3257.9 738.462 3263.05 740.593 3266.84 744.387C3270.64 748.181 3272.77 753.327 3272.77 758.693C3272.77 764.058 3270.64 769.204 3266.84 772.998C3263.05 776.792 3257.9 778.923 3252.54 778.923Z" fill="black"/>
<path opacity="0.1" d="M3252.54 869.077H2178.54C2173.17 869.077 2168.03 866.946 2164.23 863.152C2160.44 859.358 2158.31 854.212 2158.31 848.847C2158.3 846.187 2158.81 843.552 2159.83 841.093C2160.84 838.634 2162.33 836.399 2164.21 834.519C2166.09 832.638 2168.33 831.148 2170.78 830.135C2173.24 829.122 2175.88 828.606 2178.54 828.616H3252.54C3257.9 828.616 3263.05 830.747 3266.84 834.541C3270.64 838.335 3272.77 843.481 3272.77 848.847C3272.77 854.212 3270.64 859.358 3266.84 863.152C3263.05 866.946 3257.9 869.077 3252.54 869.077Z" fill="black"/>
<path opacity="0.1" d="M3252.54 959.231H2178.54C2173.17 959.231 2168.03 957.099 2164.23 953.305C2160.44 949.511 2158.31 944.366 2158.31 939C2158.3 936.337 2158.81 933.698 2159.83 931.235C2160.84 928.771 2162.33 926.532 2164.21 924.645C2166.09 922.758 2168.32 921.261 2170.78 920.24C2173.24 919.218 2175.88 918.692 2178.54 918.692H3252.54C3257.91 918.713 3263.06 920.861 3266.85 924.667C3270.64 928.474 3272.77 933.627 3272.77 939C3272.77 944.366 3270.64 949.511 3266.84 953.305C3263.05 957.099 3257.9 959.231 3252.54 959.231Z" fill="black"/>
<path opacity="0.1" d="M3252.62 1008.85H2178.54C2167.37 1008.85 2158.31 1017.9 2158.31 1029.08V1029.15C2158.31 1040.33 2167.37 1049.38 2178.54 1049.38H3252.62C3263.79 1049.38 3272.85 1040.33 3272.85 1029.15V1029.08C3272.85 1017.9 3263.79 1008.85 3252.62 1008.85Z" fill="black"/>
<path opacity="0.1" d="M3252.54 1139.38H2178.54C2173.17 1139.38 2168.03 1137.25 2164.23 1133.46C2160.44 1129.67 2158.31 1124.52 2158.31 1119.15C2158.31 1113.79 2160.44 1108.64 2164.23 1104.85C2168.03 1101.05 2173.17 1098.92 2178.54 1098.92H3252.54C3257.9 1098.92 3263.05 1101.05 3266.84 1104.85C3270.64 1108.64 3272.77 1113.79 3272.77 1119.15C3272.77 1124.52 3270.64 1129.67 3266.84 1133.46C3263.05 1137.25 3257.9 1139.38 3252.54 1139.38Z" fill="black"/>
<path opacity="0.1" d="M3252.54 1229.62H2178.54C2173.17 1229.62 2168.03 1227.48 2164.23 1223.69C2160.44 1219.9 2158.31 1214.75 2158.31 1209.38C2158.3 1206.73 2158.81 1204.09 2159.83 1201.63C2160.84 1199.17 2162.33 1196.94 2164.21 1195.06C2166.09 1193.18 2168.33 1191.69 2170.78 1190.67C2173.24 1189.66 2175.88 1189.14 2178.54 1189.15H3252.54C3257.9 1189.15 3263.05 1191.29 3266.84 1195.08C3270.64 1198.87 3272.77 1204.02 3272.77 1209.38C3272.77 1214.75 3270.64 1219.9 3266.84 1223.69C3263.05 1227.48 3257.9 1229.62 3252.54 1229.62Z" fill="black"/>
<path opacity="0.1" d="M3252.54 1319.77H2178.54C2173.17 1319.77 2168.03 1317.64 2164.23 1313.84C2160.44 1310.05 2158.31 1304.9 2158.31 1299.54C2158.3 1296.88 2158.81 1294.24 2159.83 1291.77C2160.84 1289.31 2162.33 1287.07 2164.21 1285.18C2166.09 1283.3 2168.32 1281.8 2170.78 1280.78C2173.24 1279.76 2175.88 1279.23 2178.54 1279.23H3252.54C3257.91 1279.25 3263.06 1281.4 3266.85 1285.21C3270.64 1289.01 3272.77 1294.17 3272.77 1299.54C3272.77 1304.9 3270.64 1310.05 3266.84 1313.84C3263.05 1317.64 3257.9 1319.77 3252.54 1319.77Z" fill="black"/>
<path opacity="0.1" d="M3252.54 1409.92H2178.54C2175.88 1409.92 2173.24 1409.4 2170.78 1408.38C2168.32 1407.35 2166.09 1405.86 2164.21 1403.97C2162.33 1402.08 2160.84 1399.84 2159.83 1397.38C2158.81 1394.92 2158.3 1392.28 2158.31 1389.62C2158.31 1384.25 2160.44 1379.1 2164.23 1375.31C2168.03 1371.52 2173.17 1369.38 2178.54 1369.38H3252.54C3257.9 1369.38 3263.05 1371.52 3266.84 1375.31C3270.64 1379.1 3272.77 1384.25 3272.77 1389.62C3272.77 1394.99 3270.64 1400.14 3266.85 1403.95C3263.06 1407.75 3257.91 1409.9 3252.54 1409.92Z" fill="black"/>
<path opacity="0.1" d="M2637.15 1500H2178.54C2173.17 1500 2168.03 1497.87 2164.23 1494.07C2160.44 1490.28 2158.31 1485.13 2158.31 1479.77C2158.31 1474.4 2160.44 1469.26 2164.23 1465.46C2168.03 1461.67 2173.17 1459.54 2178.54 1459.54H2637.15C2642.52 1459.54 2647.67 1461.67 2651.46 1465.46C2655.25 1469.26 2657.38 1474.4 2657.38 1479.77C2657.38 1485.13 2655.25 1490.28 2651.46 1494.07C2647.67 1497.87 2642.52 1500 2637.15 1500Z" fill="black"/>
<path d="M3169.92 605.385L3168.46 604.154C3164.31 601 3161.92 602.077 3160 596C3158.62 591.616 3160 586.692 3158.38 582.154C3154.72 574.342 3150.53 566.786 3145.85 559.539L3126.92 525.462C3122.7 517.916 3115.65 512.352 3107.34 509.987C3099.02 507.623 3090.1 508.651 3082.54 512.846L2908.31 609.923C2907.62 615.769 2902.77 619.769 2901.77 625.308C2901.43 626.944 2901.51 628.642 2902.03 630.234C2902.54 631.826 2903.46 633.257 2904.69 634.385C2902.74 634.346 2900.85 633.671 2899.31 632.462C2888.92 626.693 2886.15 622.077 2875.46 627.923C2870.85 630.385 2866.31 633 2861.77 635.616L2815.62 661.385L2671 741.923L2501.77 836.385L2360.77 914.923C2341.54 925.616 2318.23 935 2301.08 948.616C2305.85 951.077 2306.69 954.846 2302.46 958.539L2294.77 965.539C2294.77 967.462 2297.54 967.462 2299.31 966.693L2308.85 962.616C2302.22 971.03 2294.24 978.283 2285.23 984.077C2270.11 992.858 2253.85 999.535 2236.92 1003.92L2245.08 993.692C2245.69 992.846 2246.46 991.769 2245.92 990.769C2245.38 989.769 2244.38 989.692 2243.46 989.616C2239.38 989.154 2235.31 989.616 2232.31 986.616C2206 1002 2178.46 1016.62 2151.69 1031.54C2144.15 1035.76 2138.58 1042.81 2136.22 1051.13C2133.85 1059.44 2134.88 1068.36 2139.08 1075.92L2314.77 1391.31C2316.85 1395.05 2319.64 1398.34 2322.99 1401C2326.35 1403.66 2330.19 1405.63 2334.31 1406.81C2338.42 1407.98 2342.73 1408.33 2346.98 1407.83C2351.23 1407.34 2355.34 1406.01 2359.08 1403.92L2405.31 1377.85C2405.31 1372.38 2409.62 1366.31 2406.38 1361.31C2405.93 1360.7 2405.64 1359.98 2405.54 1359.23C2405.54 1358.23 2406.46 1357.46 2407.31 1356.92C2412.05 1353.91 2417.47 1352.17 2423.08 1351.85C2425 1351.85 2427.54 1352.69 2427.23 1354.54C2427.23 1352.85 2437.15 1349.31 2438.77 1348.77C2439.54 1352.92 2436.69 1357.38 2441.54 1358.23C2446.38 1359.08 2453.77 1350.54 2456.92 1349L2503.08 1323.23L2649.23 1241.92L2809.54 1152.62L2916.08 1093.23C2919.92 1091 2924.46 1088.38 2928.15 1086.54C2929.49 1079.48 2932.92 1073 2938 1067.92C2945.69 1062.62 2957.85 1068.46 2964.23 1060.92C2965.46 1059.46 2966.23 1057.69 2967.31 1056.15C2969.46 1053.65 2972.07 1051.59 2975 1050.08C2976.86 1048.62 2979.11 1047.73 2981.46 1047.54C2983.77 1047.54 2986.23 1049.46 2985.92 1051.77C3001.77 1048.08 3016.08 1037.38 3030.08 1029.46C3035.15 1026.62 3079.69 1005.69 3079.54 1002.38C3078.92 992.154 3085.15 983.385 3084.85 972.846C3084.85 970.846 3080.92 957.462 3082.69 956.462C3042.69 980.308 3001.15 1002 2960.38 1024.62C2959 1025.46 2953.77 1027.23 2952.69 1028.77C2952.69 1028.77 2952.31 1029.46 2952.15 1029.85L2951 1032.38V1033C2949.34 1038.24 2947.39 1043.37 2945.15 1048.38C2945.15 1049.08 2936.46 1059.85 2935.77 1057.31C2932.38 1044.92 2928.08 1043 2918.62 1048.08L2905.08 1055.77L2862.08 1079.69L2717.23 1160.46L2546.54 1255.54L2404.31 1334.77L2344.69 1367.92C2332.79 1346.38 2320.82 1324.87 2308.77 1303.38L2285.69 1261.92C2283.36 1256.18 2279.91 1250.95 2275.54 1246.54C2272.23 1244.08 2266.62 1244.69 2263.69 1242.46C2256.54 1237 2251.38 1227.08 2244.62 1220.69C2240 1216.38 2233 1203.46 2234.92 1196.31C2237.23 1197.23 2239.54 1198.23 2241.85 1198.92C2240.64 1194.19 2240.91 1189.2 2242.62 1184.62C2219.54 1145.77 2198.31 1105.15 2176.23 1065.46L2174.77 1062.92L2228.62 1032.92L2267.92 1011C2276.01 1007.53 2283.74 1003.27 2291 998.308C2296 994 2301.08 988.616 2306.38 984C2309.95 981.291 2313.82 979.018 2317.92 977.231L2332.46 970.154C2333.21 969.705 2334.05 969.441 2334.92 969.385C2335.79 969.48 2336.65 969.687 2337.46 970C2345.15 971.616 2364.23 957.385 2371.15 953.539L2415.92 928.616L2551 853.308L2719.31 759.616L2887.77 665.692L3023.31 590.231L3092.54 551.769L3095.77 550L3170.62 684.385C3175.25 693.443 3182.66 700.777 3191.77 705.308C3194.85 706.308 3198.31 708.462 3197.92 711.616C3197.54 714.769 3192.92 717.385 3194 720.616C3195.08 723.846 3201 722.616 3202.38 725.539C3203.77 728.462 3200 733.231 3200.46 737.231C3202.05 742.02 3204.42 746.515 3207.46 750.539L3229.23 789.692C3241.38 811.385 3253.46 833.154 3265.69 855.077L3132.62 929.231C3133.27 929.762 3133.82 930.415 3134.23 931.154L3134.92 932.923C3137.57 933.86 3140.14 934.991 3142.62 936.308C3143.68 936.901 3144.55 937.774 3145.15 938.833C3145.75 939.891 3146.04 941.093 3146 942.308C3145.98 943.509 3145.64 944.683 3145.02 945.71C3144.4 946.738 3143.52 947.581 3142.46 948.154L3134.31 952.769C3134.02 954.553 3133.19 956.207 3131.94 957.512C3130.69 958.816 3129.08 959.711 3127.31 960.077C3126.36 960.156 3125.41 960.156 3124.46 960.077C3123.65 960.67 3122.72 961.081 3121.74 961.28C3120.76 961.479 3119.75 961.462 3118.77 961.231C3117.03 960.695 3115.56 959.509 3114.67 957.918C3113.78 956.328 3113.54 954.456 3114 952.692C3114.32 951.901 3114.73 951.152 3115.23 950.462C3114.65 949.341 3114.38 948.081 3114.46 946.82C3114.54 945.559 3114.97 944.345 3115.69 943.308H3113.23C3111.85 943.308 3110.62 942.539 3109.31 942.154C3102.39 946.427 3097 952.782 3093.92 960.308C3093.59 960.718 3093.42 961.241 3093.46 961.769C3093.46 962.846 3095.15 962.923 3096.15 963.385C3098.46 964.462 3097.92 967.846 3096.77 970.077C3095.62 972.308 3094.23 975.154 3095.77 977.154C3096.35 977.827 3097 978.445 3097.69 979C3101 982.769 3095.92 993.692 3104 989.231C3103.43 986.855 3103.79 984.353 3105 982.231C3106.37 980.09 3108.48 978.528 3110.92 977.846C3116.9 976.395 3123.01 975.519 3129.15 975.231L3289.54 885.539C3297.08 881.313 3302.65 874.27 3305.01 865.952C3307.38 857.633 3306.35 848.716 3302.15 841.154L3301.23 839.539L3228.77 709.462L3186.92 634.231C3182.85 627.077 3179.23 619.616 3174.77 612.539C3173.54 609.913 3171.91 607.498 3169.92 605.385Z" fill="#407BFF"/>
<path d="M2428.85 1030.38C2423.54 1023.92 2425.15 1023.77 2424.15 1016.85C2424.15 1016.85 2424.15 1016.85 2424.15 1016.38L2423.54 1015.69L2422.62 1014.62C2419 1016.23 2415.38 1018 2411.77 1020L2340.92 1059.46L2369.46 1110.62C2365.46 1103.54 2379.62 1105.62 2380.15 1105.54C2381.66 1105.1 2383.21 1104.84 2384.77 1104.77C2386.31 1105.1 2387.66 1106.01 2388.54 1107.31C2391.5 1112.48 2392.38 1118.59 2391 1124.38C2390.15 1132.08 2394.23 1139.77 2389.85 1147.46C2393.62 1153.62 2427.69 1215.62 2427.85 1215.54L2498.69 1176.08C2502.77 1173.77 2512.46 1169.69 2514.85 1165.62C2517.23 1161.54 2513.46 1155.15 2517.69 1153.23C2519.29 1152.65 2520.99 1152.43 2522.68 1152.59C2524.37 1152.75 2526.01 1153.28 2527.46 1154.15C2540.96 1140.79 2549.63 1123.33 2552.12 1104.51C2554.61 1085.68 2550.78 1066.56 2541.23 1050.15C2521.31 1014.38 2476.08 993.077 2436.46 1009.69C2433.69 1010.85 2437.38 1023.23 2430.77 1024.62C2432.03 1022.14 2433.85 1019.98 2436.08 1018.31M2480.23 1147.08L2447.23 1165.46C2444.54 1160.62 2441.92 1155.77 2439.15 1151.08C2442.62 1156.92 2433.08 1155.08 2431.08 1153.77C2426.23 1150.54 2424.92 1141.23 2424.77 1136C2424.65 1127.03 2421.99 1118.28 2417.08 1110.77C2409.33 1096.77 2401.64 1082.77 2394 1068.77L2427 1050.38C2457.77 1033.15 2488.54 1040.31 2505.15 1070.15C2521.77 1100 2511.23 1130.08 2480.23 1147.08Z" fill="#407BFF"/>
<path d="M2663.08 899.385C2664.76 903.039 2665.24 907.131 2664.46 911.077C2664.08 913.231 2660.62 918.769 2661.08 920.154C2662.31 923.231 2663.54 926.308 2664.69 929.385C2664.9 929.888 2665.19 930.355 2665.54 930.769C2666.13 931.167 2666.83 931.381 2667.54 931.385C2679.77 932.462 2679.23 933.692 2680 944C2680.69 952.846 2688.31 957.923 2692.62 965.616C2698.4 975.722 2700.91 987.373 2699.81 998.966C2698.71 1010.56 2694.04 1021.53 2686.46 1030.36C2678.87 1039.2 2668.73 1045.46 2657.44 1048.31C2646.15 1051.15 2634.25 1050.42 2623.39 1046.23C2623.1 1046.51 2622.79 1046.77 2622.46 1047C2620.84 1047.81 2618.99 1048.03 2617.23 1047.62C2613.23 1046.48 2609.61 1044.29 2606.76 1041.27C2603.9 1038.25 2601.91 1034.52 2601 1030.46C2600.89 1029.85 2600.89 1029.23 2601 1028.62C2598.82 1025.92 2596.89 1023.04 2595.23 1020C2591.28 1013.64 2588.68 1006.54 2587.6 999.134C2586.52 991.728 2586.98 984.178 2588.95 976.957C2590.92 969.736 2594.36 963 2599.06 957.171C2603.75 951.341 2609.6 946.543 2616.23 943.077C2625.85 937.591 2636.88 935.075 2647.92 935.846L2647.31 934.923C2640.69 926.154 2664.54 922.616 2653.77 916.692C2649.23 914.231 2650 903.077 2648.85 898.539C2631.37 898.933 2614.27 903.665 2599.08 912.308C2549.85 939.769 2532.85 994.154 2558.69 1040.54C2569.57 1060.49 2587.55 1075.63 2609.08 1082.92C2614.14 1085.13 2619.56 1086.38 2625.08 1086.62C2631.39 1086.08 2628.31 1086.62 2631 1082.85C2633.69 1079.08 2632.08 1077.46 2636.15 1073.46C2640.23 1069.46 2645 1067.08 2645.85 1060.92C2645.85 1063.69 2648.92 1065.69 2648.92 1068.62C2648.92 1069.46 2648.92 1070.31 2648.92 1071.08C2649.09 1072.08 2649.54 1073.02 2650.23 1073.77C2652.85 1077.31 2657.23 1081.46 2657.31 1085.54C2668.56 1083.67 2679.37 1079.71 2689.15 1073.85C2738.15 1046.54 2755.54 992.231 2729.54 945.692C2716.08 921.923 2690.77 900.923 2663.08 899.385Z" fill="#407BFF"/>
<path d="M2820.38 792.308L2873.15 887L2742.85 835.462L2713 852.154C2733.15 888.308 2754.54 924.077 2773.46 960.923C2774.77 956.923 2777.85 956.154 2781.54 955.615C2788.46 954.692 2788.23 958.154 2792 965C2792.46 965.846 2793 966.692 2793.85 966.846C2794.69 967 2796.38 965.615 2797.77 965.769C2799.15 965.923 2799.69 967.615 2799.31 968.923C2798.82 970.204 2798.18 971.419 2797.38 972.538C2795.15 976.769 2798.85 979.462 2798.38 983.308C2798.38 985.308 2791.69 993.462 2792.46 994.846L2800.15 1008.08L2835.85 988.231L2826.31 971.154H2824.54C2814.15 972.539 2818.77 958.923 2816.46 953.308C2812.73 945.353 2808.49 937.645 2803.77 930.231L2782.77 893.231L2888.69 934.923C2888.42 931.881 2888.78 928.815 2889.77 925.923C2890.62 924.308 2897.46 921.308 2897.46 919.769C2897.86 924.73 2900.18 929.34 2903.92 932.615C2908 936.231 2908 935.692 2907.23 942.077L2913.54 944.615L2943.23 928.077L2856.31 772.154L2820.38 792.308Z" fill="#407BFF"/>
<path d="M2999.69 858.847L2979.54 822.77L3052 782.385L3036.62 754.308L2964.23 794.693L2945.38 760.77L2994.31 733.539C2996.37 730.874 2999 728.695 3002 727.154C3003.52 726.374 3005.27 726.182 3006.92 726.616L3027.62 715.154C3027.62 715.154 3012.92 688.924 3011.54 686.154C3004.46 689.385 3011.54 698.308 3004.38 702.616C3005.85 704.154 3008 709.616 3004.38 710.308C3002.31 710.308 3000.77 707.693 2998.69 707.924C2996.61 708.154 2996.54 709.154 2995.46 708.847C2995.13 708.754 2994.83 708.589 2994.58 708.362C2994.33 708.135 2994.13 707.854 2994 707.539C2993 705.219 2991.74 703.024 2990.23 701C2985.38 696.308 2941.15 725.77 2935 729.231L2893.85 752.308L2980.69 908.231L3015.38 888.924L3016.08 888C3018.62 884.77 3021.08 881.462 3023.77 878.462C3024.86 877.423 3026.26 876.764 3027.76 876.584C3029.25 876.404 3030.77 876.712 3032.08 877.462C3032.7 877.785 3033.25 878.23 3033.69 878.77L3101.46 841L3085.31 812L2999.69 858.847Z" fill="#407BFF"/>
<path d="M3092.23 2517.92C3092.23 2517.92 3041.62 2407.62 3099.39 2298.77C3157.15 2189.92 3174 2164.31 3137.15 2142.08C3100.31 2119.85 3083.31 2229.08 3083.31 2229.08C3083.31 2229.08 3052.54 2153.85 3077.85 2075.23C3103.15 1996.62 3119.62 1868.31 3084.62 1854.54C3049.62 1840.77 3077.92 2014.46 3047.54 2073.69C3032.05 2032.12 3022.04 1988.7 3017.77 1944.54C3013.62 1881.31 3020.15 1780.38 2992.46 1754.46C2964.77 1728.54 2947.15 1746.77 2974.31 1886C2990.63 1969.39 2999.66 2054.04 3001.31 2139C3001.31 2139 2941.23 1955.92 2901.31 1950.62C2861.39 1945.31 2861.08 2004.46 2895.62 2055.92C2930.15 2107.39 2996.31 2199.39 3007.15 2247.08C3007.15 2247.08 2941.31 2109.38 2882 2151.54C2822.69 2193.69 2933.62 2277 2983 2307.08C3032.39 2337.15 3066.77 2525.54 3066.77 2525.54L3092.23 2517.92Z" fill="#407BFF"/>
<path opacity="0.2" d="M3092.23 2517.92C3092.23 2517.92 3041.62 2407.62 3099.39 2298.77C3157.15 2189.92 3174 2164.31 3137.15 2142.08C3100.31 2119.85 3083.31 2229.08 3083.31 2229.08C3083.31 2229.08 3052.54 2153.85 3077.85 2075.23C3103.15 1996.62 3119.62 1868.31 3084.62 1854.54C3049.62 1840.77 3077.92 2014.46 3047.54 2073.69C3032.05 2032.12 3022.04 1988.7 3017.77 1944.54C3013.62 1881.31 3020.15 1780.38 2992.46 1754.46C2964.77 1728.54 2947.15 1746.77 2974.31 1886C2990.63 1969.39 2999.66 2054.04 3001.31 2139C3001.31 2139 2941.23 1955.92 2901.31 1950.62C2861.39 1945.31 2861.08 2004.46 2895.62 2055.92C2930.15 2107.39 2996.31 2199.39 3007.15 2247.08C3007.15 2247.08 2941.31 2109.38 2882 2151.54C2822.69 2193.69 2933.62 2277 2983 2307.08C3032.39 2337.15 3066.77 2525.54 3066.77 2525.54L3092.23 2517.92Z" fill="black"/>
<path d="M3052.23 2563.23C3052.23 2563.23 3101.54 2452.08 3042.46 2344.15C2983.39 2236.23 2966.23 2210.85 3002.85 2188C3039.46 2165.15 3057.62 2274.23 3057.62 2274.23C3057.62 2274.23 3087.77 2198.62 3061.23 2120.38C3034.69 2042.15 3017 1914.08 3051.85 1899.85C3086.69 1885.62 3060.46 2059.69 3091.54 2118.38C3106.55 2076.62 3116.01 2033.07 3119.69 1988.85C3123.15 1925.54 3115.39 1824.69 3142.77 1798.39C3170.15 1772.08 3188.08 1789.77 3162.54 1929.69C3147.23 2013.27 3139.23 2098.03 3138.62 2183C3138.62 2183 3196.46 1999.08 3236.69 1993.15C3276.92 1987.23 3277.54 2046.46 3243.69 2098.39C3209.85 2150.31 3144.46 2243.38 3134.08 2290.69C3134.08 2290.69 3198.31 2152.23 3258.08 2193.38C3317.85 2234.54 3208 2319.54 3159 2350.31C3110 2381.08 3077.62 2570.15 3077.62 2570.15L3052.23 2563.23Z" fill="#407BFF"/>
<path d="M3279.46 2484H2872.54L2905.46 2775.23H3246.54L3279.46 2484Z" fill="#263238"/>
<path d="M1197.85 652.847H929.308C918.964 652.847 909.044 656.956 901.73 664.27C894.417 671.583 890.308 681.503 890.308 691.847V952.924C890.308 963.267 894.417 973.187 901.73 980.501C909.044 987.815 918.964 991.924 929.308 991.924H1015.23L957.385 1070.54L1057.38 991.924H1197.77C1208.11 991.924 1218.03 987.815 1225.35 980.501C1232.66 973.187 1236.77 963.267 1236.77 952.924V691.847C1236.77 681.517 1232.67 671.608 1225.37 664.297C1218.08 656.985 1208.18 652.867 1197.85 652.847Z" fill="#407BFF"/>
<path opacity="0.6" d="M1197.85 652.847H929.308C918.964 652.847 909.044 656.956 901.73 664.27C894.417 671.583 890.308 681.503 890.308 691.847V952.924C890.308 963.267 894.417 973.187 901.73 980.501C909.044 987.815 918.964 991.924 929.308 991.924H1015.23L957.385 1070.54L1057.38 991.924H1197.77C1208.11 991.924 1218.03 987.815 1225.35 980.501C1232.66 973.187 1236.77 963.267 1236.77 952.924V691.847C1236.77 681.517 1232.67 671.608 1225.37 664.297C1218.08 656.985 1208.18 652.867 1197.85 652.847Z" fill="white"/>
<path d="M1063.62 944.308C1130.95 944.308 1185.54 889.721 1185.54 822.385C1185.54 755.049 1130.95 700.462 1063.62 700.462C996.279 700.462 941.692 755.049 941.692 822.385C941.692 889.721 996.279 944.308 1063.62 944.308Z" fill="#407BFF"/>
<path opacity="0.2" d="M1165.32 846.321C1178.58 790.13 1143.78 733.826 1087.59 720.564C1031.4 707.302 975.096 742.103 961.833 798.294C948.571 854.485 983.372 910.788 1039.56 924.05C1095.75 937.312 1152.06 902.512 1165.32 846.321Z" fill="black"/>
<path d="M1050.62 872.308C1049.2 872.339 1047.79 872.09 1046.47 871.575C1045.15 871.06 1043.94 870.29 1042.92 869.308L998.538 825.847C996.498 823.868 995.328 821.16 995.284 818.318C995.241 815.476 996.329 812.733 998.308 810.693C1000.29 808.653 1002.99 807.482 1005.84 807.439C1008.68 807.396 1011.42 808.483 1013.46 810.462L1049.85 846.078L1112.77 775.847C1114.7 773.902 1117.3 772.772 1120.04 772.69C1122.78 772.608 1125.44 773.58 1127.48 775.405C1129.53 777.231 1130.79 779.771 1131.02 782.501C1131.24 785.231 1130.41 787.943 1128.69 790.078L1058.31 868.616C1057.34 869.702 1056.15 870.577 1054.83 871.185C1053.51 871.794 1052.07 872.124 1050.62 872.155V872.308Z" fill="white"/>
<path d="M715.308 2600.31L936.923 2578.46V2328.54H1024.77V2578.38L1247.31 2600.31C1257.97 2601.34 1267.87 2606.31 1275.06 2614.25C1282.26 2622.18 1286.24 2632.52 1286.23 2643.23V2676.54H676.385V2643.23C676.373 2632.52 680.354 2622.18 687.551 2614.25C694.748 2606.31 704.644 2601.34 715.308 2600.31Z" fill="#263238"/>
<path opacity="0.1" d="M715.308 2600.31L936.923 2578.46V2328.54H1024.77V2578.38L1247.31 2600.31C1257.97 2601.34 1267.87 2606.31 1275.06 2614.25C1282.26 2622.18 1286.24 2632.52 1286.23 2643.23V2676.54H676.385V2643.23C676.373 2632.52 680.354 2622.18 687.551 2614.25C694.748 2606.31 704.644 2601.34 715.308 2600.31Z" fill="white"/>
<path d="M1262.77 2775.23C1294.5 2775.23 1320.23 2749.5 1320.23 2717.77C1320.23 2686.03 1294.5 2660.31 1262.77 2660.31C1231.03 2660.31 1205.31 2686.03 1205.31 2717.77C1205.31 2749.5 1231.03 2775.23 1262.77 2775.23Z" fill="#263238"/>
<path d="M699.846 2775.23C731.581 2775.23 757.308 2749.5 757.308 2717.77C757.308 2686.03 731.581 2660.31 699.846 2660.31C668.111 2660.31 642.385 2686.03 642.385 2717.77C642.385 2749.5 668.111 2775.23 699.846 2775.23Z" fill="#263238"/>
<path d="M1008.08 2395.46H953.308C944.882 2395.46 936.801 2392.11 930.843 2386.16C924.886 2380.2 921.538 2372.12 921.538 2363.69V2118H1039.85V2363.69C1039.85 2372.12 1036.5 2380.2 1030.54 2386.16C1024.58 2392.11 1016.5 2395.46 1008.08 2395.46Z" fill="#263238"/>
<path opacity="0.2" d="M1008.08 2395.46H953.308C944.882 2395.46 936.801 2392.11 930.843 2386.16C924.886 2380.2 921.538 2372.12 921.538 2363.69V2118H1039.85V2363.69C1039.85 2372.12 1036.5 2380.2 1030.54 2386.16C1024.58 2392.11 1016.5 2395.46 1008.08 2395.46Z" fill="white"/>
<path d="M674.077 1636.46C674.077 1636.46 739.923 2047.08 869.923 2118.08H737.769C737.769 2118.08 607 1978.08 567.615 1636.46H674.077Z" fill="#263238"/>
<path opacity="0.1" d="M674.077 1636.46C674.077 1636.46 739.923 2047.08 869.923 2118.08H737.769C737.769 2118.08 607 1978.08 567.615 1636.46H674.077Z" fill="white"/>
<path d="M731.462 2060H1246.23C1256.43 2060 1266.21 2064.05 1273.43 2071.27C1280.64 2078.48 1284.69 2088.26 1284.69 2098.46V2149.92H693V2098.46C693 2088.26 697.052 2078.48 704.265 2071.27C711.478 2064.05 721.261 2060 731.462 2060Z" fill="#407BFF"/>
<path d="M1293.62 2104.92H683.539C674.999 2104.92 668.077 2111.85 668.077 2120.38V2134.39C668.077 2142.92 674.999 2149.85 683.539 2149.85H1293.62C1302.15 2149.85 1309.08 2142.92 1309.08 2134.39V2120.38C1309.08 2111.85 1302.15 2104.92 1293.62 2104.92Z" fill="#263238"/>
<path opacity="0.6" d="M1293.62 2104.92H683.539C674.999 2104.92 668.077 2111.85 668.077 2120.38V2134.39C668.077 2142.92 674.999 2149.85 683.539 2149.85H1293.62C1302.15 2149.85 1309.08 2142.92 1309.08 2134.39V2120.38C1309.08 2111.85 1302.15 2104.92 1293.62 2104.92Z" fill="white"/>
<path d="M552 1720H763.462C825.462 1720 865.692 1670.31 853.385 1609L836.923 1527.15C824.615 1465.62 764.385 1416.23 702.462 1416.23H491C429 1416.23 388.769 1465.92 401.077 1527.15L417.538 1609C429.846 1670.15 490 1720 552 1720Z" fill="#407BFF"/>
<path d="M1674.08 2407.77L1625.62 2426.77L1590.77 2361.08L1559.08 2301.31L1612.77 2269.15L1645.23 2342.46L1674.08 2407.77Z" fill="#E4897B"/>
<path opacity="0.2" d="M1645.23 2342.46L1590.77 2361.08L1559.08 2301.31L1612.77 2269.15L1645.23 2342.46Z" fill="black"/>
<path d="M1635.15 2306.62L1569.23 2342C1569.23 2342 1320.08 1903.92 1281.77 1907.62C1243.46 1911.31 880 2142.85 769.154 2057.31C658.308 1971.77 766.154 1714.23 766.154 1714.23C766.154 1714.23 995.462 1648.69 1020 1698.85C1026.47 1713.86 1031.97 1729.28 1036.46 1745C1041.31 1760.77 1045 1774.08 1045 1774.08C1052 1771.23 1278.46 1678.39 1379.54 1727.92C1482.69 1778.85 1635.15 2306.62 1635.15 2306.62Z" fill="#263238"/>
<path opacity="0.3" d="M1635.15 2306.62L1569.23 2342C1569.23 2342 1320.08 1903.92 1281.77 1907.62C1243.46 1911.31 880 2142.85 769.154 2057.31C658.308 1971.77 766.154 1714.23 766.154 1714.23C766.154 1714.23 995.462 1648.69 1020 1698.85C1026.47 1713.86 1031.97 1729.28 1036.46 1745C1041.31 1760.77 1045 1774.08 1045 1774.08C1052 1771.23 1278.46 1678.39 1379.54 1727.92C1482.69 1778.85 1635.15 2306.62 1635.15 2306.62Z" fill="white"/>
<path d="M1277 2663.85L1225.31 2657.92L1225 2585L1224.92 2518.08L1287.46 2515.15L1281.92 2593.85L1277 2663.85Z" fill="#E4897B"/>
<path opacity="0.2" d="M1281.77 2595.46L1224.85 2586.38V2518.77L1287.38 2515.46L1281.77 2595.46Z" fill="black"/>
<path d="M1537 2320.23L1633.46 2271.92L1643.54 2312.85L1570.46 2350.54L1537 2320.23Z" fill="#407BFF"/>
<path d="M940.385 2058C940.385 2058 956.231 2056.23 1200 2011.08C1200 2011.08 1205.54 2322.77 1217.08 2555.15L1292.15 2557.54C1292.15 2557.54 1399.85 2042.15 1387.15 1964C1374.46 1885.85 1281.85 1875.62 1281.85 1875.62C1281.85 1875.62 1121 2000.92 940.385 2058Z" fill="#263238"/>
<path opacity="0.4" d="M940.385 2058C940.385 2058 956.231 2056.23 1200 2011.08C1200 2011.08 1205.54 2322.77 1217.08 2555.15L1292.15 2557.54C1292.15 2557.54 1399.85 2042.15 1387.15 1964C1374.46 1885.85 1281.85 1875.62 1281.85 1875.62C1281.85 1875.62 1121 2000.92 940.385 2058Z" fill="white"/>
<path opacity="0.3" d="M940.385 2058C940.385 2058 956.231 2056.23 1200 2011.08C1200 2011.08 1205.54 2322.77 1217.08 2555.15L1292.15 2557.54C1292.15 2557.54 1399.85 2042.15 1387.15 1964C1374.46 1885.85 1281.85 1875.62 1281.85 1875.62C1281.85 1875.62 1121 2000.92 940.385 2058Z" fill="black"/>
<path d="M1203.31 2534.38L1305.69 2532L1291.69 2574.15L1208.62 2574.92L1203.31 2534.38Z" fill="#407BFF"/>
<path opacity="0.3" d="M1045.31 1774.23L912.461 1821.54C912.461 1821.54 982.308 1769.38 1036.77 1745.15C1041.62 1760.92 1045.31 1774.23 1045.31 1774.23Z" fill="black"/>
<path d="M750.769 1698.38L755.692 1735.23L1004.69 1682.38L998.923 1638.85L750.769 1698.38Z" fill="#263238"/>
<path opacity="0.2" d="M750.769 1698.38L755.692 1735.23L1004.69 1682.38L998.923 1638.85L750.769 1698.38Z" fill="black"/>
<path d="M833.271 1671.61L820.868 1673.92L832.584 1737.07L844.988 1734.77L833.271 1671.61Z" fill="#263238"/>
<path d="M941.85 1655.63L887.52 1667.87L896.804 1709.07L951.134 1696.83L941.85 1655.63Z" fill="white"/>
<path d="M976.783 1629.9L964.42 1632.17L975.981 1695.12L988.344 1692.85L976.783 1629.9Z" fill="#263238"/>
<path opacity="0.3" d="M833.271 1671.61L820.868 1673.92L832.584 1737.07L844.988 1734.77L833.271 1671.61Z" fill="white"/>
<path opacity="0.3" d="M976.783 1629.9L964.42 1632.17L975.981 1695.12L988.344 1692.85L976.783 1629.9Z" fill="white"/>
<path d="M1770.38 2493.77C1762.3 2491.29 1753.82 2490.32 1745.38 2490.92C1745.38 2490.92 1714.08 2477.85 1676.15 2415.62L1643.85 2419.85C1638.41 2420.66 1633.35 2423.13 1629.36 2426.91C1625.37 2430.7 1622.64 2435.61 1621.54 2441C1621.31 2442.53 1621.31 2444.09 1621.54 2445.62C1622.93 2453.42 1624.83 2461.13 1627.23 2468.69C1635.51 2493.7 1645.3 2518.18 1656.54 2542L1661.77 2539.85L1645.08 2493.23C1639.54 2477.31 1658.85 2490.77 1669.08 2506.15C1679.31 2521.54 1693.85 2536.46 1728.38 2523.39C1768.54 2507.69 1784.46 2499.38 1770.38 2493.77Z" fill="#263238"/>
<path d="M1668.08 2399.08C1668.08 2399.08 1719.92 2477.85 1745.38 2490.92C1745.38 2490.92 1716.85 2514 1678.77 2476.92C1629.62 2429.31 1621.38 2445.62 1621.38 2445.62C1620.95 2436.29 1621.38 2426.94 1622.69 2417.69C1626.62 2399.62 1668.08 2399.08 1668.08 2399.08Z" fill="#E4897B"/>
<path d="M1354.54 2755.54C1347.17 2751.29 1339.09 2748.42 1330.69 2747.08C1330.69 2747.08 1303.38 2727 1281.46 2657.62L1249.08 2654.08C1243.58 2653.56 1238.06 2654.76 1233.28 2657.51C1228.5 2660.27 1224.69 2664.45 1222.38 2669.46C1221.69 2670.84 1221.23 2672.32 1221 2673.85C1220.46 2681.71 1220.46 2689.6 1221 2697.46C1223.09 2723.72 1226.79 2749.82 1232.08 2775.62L1237.69 2774.77L1232.69 2725.38C1231.08 2708.62 1246.69 2726.31 1253 2743.69C1259.31 2761.08 1269.85 2779 1306.46 2774.46C1349.23 2768.69 1366.62 2764.38 1354.54 2755.54Z" fill="#263238"/>
<path d="M1277.62 2639.38C1277.62 2639.38 1309.31 2728.23 1330.92 2747.08C1330.92 2747.08 1297.77 2762.46 1269.38 2717.69C1232.85 2659.77 1221.08 2673.69 1221.08 2673.69C1222.8 2664.55 1225.37 2655.59 1228.77 2646.92C1236.92 2630 1277.62 2639.38 1277.62 2639.38Z" fill="#E4897B"/>
<path d="M696.538 1070.15L631.461 1083.23C628.919 1085.37 625.916 1086.9 622.686 1087.68C619.457 1088.47 616.089 1088.5 612.846 1087.77C593.461 1080.08 565.538 1057.54 562 1049.31C556.769 1037.69 562 1003.62 575.692 997.462C589.384 991.308 636.538 1048.23 636.538 1048.23L706.461 1032.46L696.538 1070.15Z" fill="#E4897B"/>
<path d="M901.769 1286.46C901.769 1286.46 895.846 1075.62 871.461 1066.62C847.077 1057.62 663.769 1082.77 663.769 1082.77L659.308 1034.62C659.308 1034.62 872.615 1001.77 913.923 1021.23C955.231 1040.69 968.846 1354.92 961.308 1415.46L901.769 1286.46Z" fill="#407BFF"/>
<path opacity="0.6" d="M901.769 1286.46C901.769 1286.46 895.846 1075.62 871.461 1066.62C847.077 1057.62 663.769 1082.77 663.769 1082.77L659.308 1034.62C659.308 1034.62 872.615 1001.77 913.923 1021.23C955.231 1040.69 968.846 1354.92 961.308 1415.46L901.769 1286.46Z" fill="white"/>
<path d="M666.923 1087.38L654.154 1034.46L672.462 1027.85L684.077 1089L666.923 1087.38Z" fill="#407BFF"/>
<path opacity="0.7" d="M666.923 1087.38L654.154 1034.46L672.462 1027.85L684.077 1089L666.923 1087.38Z" fill="white"/>
<path d="M900.692 1260.15C900.692 1260.15 884.308 1324.31 805.385 1344.77C726.462 1365.23 639.154 1311.77 639.154 1311.77L656.538 1464.85L753.154 1706L1000.08 1641.62C1000.08 1641.62 985.308 1361.08 900.692 1260.15Z" fill="#407BFF"/>
<path opacity="0.7" d="M900.692 1260.15C900.692 1260.15 884.308 1324.31 805.385 1344.77C726.462 1365.23 639.154 1311.77 639.154 1311.77L656.538 1464.85L753.154 1706L1000.08 1641.62C1000.08 1641.62 985.308 1361.08 900.692 1260.15Z" fill="white"/>
<path opacity="0.6" d="M943.606 1514.54L972.509 1505.42C975.71 1504.41 977.486 1500.99 976.476 1497.79L959.257 1443.21C958.247 1440.01 954.834 1438.24 951.633 1439.25L922.73 1448.37C919.529 1449.38 917.753 1452.79 918.763 1455.99L935.982 1510.57C936.992 1513.77 940.405 1515.54 943.606 1514.54Z" fill="#407BFF"/>
<path opacity="0.2" d="M937.72 1497.9L970.584 1487.53L956.397 1442.56L923.532 1452.93L937.72 1497.9Z" fill="black"/>
<path d="M936.619 1426.3L929.357 1428.59L937.712 1455.08L944.974 1452.78L936.619 1426.3Z" fill="#263238"/>
<path d="M732.846 1020.54C672 1020.54 631.846 1085 646.077 1187.23C660.308 1289.46 717.308 1318.92 717.308 1318.92L713.692 1294.23C776.97 1308.59 842.209 1312.23 906.692 1305C906.692 1305 877.308 1221.62 886.846 1136.46C886.846 1136.46 906.154 1020.38 732.846 1020.54Z" fill="#263238"/>
<path opacity="0.2" d="M853.692 1324L878.538 1416.31L834.846 1383C834.846 1383 877.385 1480.23 888.692 1536.85C888.692 1536.85 851.923 1440.46 820.231 1387.62L801.692 1440.54L727.154 1364.62C727.154 1364.62 793 1314.15 853.692 1324Z" fill="black"/>
<path d="M817.385 1353.77L741.539 1356.08C775.154 1313.08 714.385 1238.15 714.385 1238.15L789.308 1254.38C807.154 1328.54 838 1330.77 838 1330.77L817.385 1353.77Z" fill="#E4897B"/>
<path opacity="0.2" d="M810.231 1307.62C781.29 1305.2 754.372 1291.79 735 1270.15C729.015 1259.04 722.12 1248.44 714.385 1238.46L789.308 1254.77C793.276 1273.43 800.348 1291.3 810.231 1307.62Z" fill="black"/>
<path d="M789.231 1051.85C854.539 1057.31 872.692 1094 871.846 1161.77C870.846 1246.38 847.154 1304.62 767 1279.85C658.077 1246.23 680.692 1042.77 789.231 1051.85Z" fill="#E4897B"/>
<path d="M829.923 1154.77C834.345 1164.97 839.975 1174.6 846.692 1183.46C844.542 1185.98 841.742 1187.87 838.596 1188.91C835.45 1189.96 832.078 1190.12 828.846 1189.38L829.923 1154.77Z" fill="#DE5753"/>
<path d="M785.692 1143.85L799.846 1139.23C799.846 1139.23 792.308 1150.46 785.692 1143.85Z" fill="#263238"/>
<path d="M790.616 1142.23C787.984 1140.94 784.972 1140.65 782.141 1141.41C779.31 1142.17 776.854 1143.94 775.231 1146.38C777.646 1145.28 780.269 1144.71 782.923 1144.71C785.577 1144.71 788.201 1145.28 790.616 1146.38V1142.23Z" fill="#263238"/>
<path d="M764.308 1111.08C763.581 1111.06 762.89 1110.75 762.385 1110.23C762.117 1109.98 761.904 1109.68 761.758 1109.34C761.612 1109 761.537 1108.64 761.537 1108.27C761.537 1107.9 761.612 1107.54 761.758 1107.2C761.904 1106.86 762.117 1106.56 762.385 1106.31C766.674 1102.56 771.777 1099.85 777.29 1098.41C782.804 1096.97 788.577 1096.83 794.154 1098C794.878 1098.15 795.512 1098.59 795.916 1099.21C796.32 1099.83 796.461 1100.58 796.308 1101.31C796.155 1102.03 795.72 1102.67 795.1 1103.07C794.48 1103.47 793.724 1103.61 793 1103.46C788.346 1102.51 783.537 1102.62 778.931 1103.78C774.324 1104.94 770.036 1107.12 766.385 1110.15C766.127 1110.45 765.807 1110.69 765.449 1110.85C765.09 1111 764.7 1111.08 764.308 1111.08Z" fill="#263238"/>
<path d="M866.769 1112.23C866.16 1112.25 865.561 1112.06 865.077 1111.69C861.999 1108.87 858.33 1106.77 854.338 1105.55C850.346 1104.32 846.131 1104 842 1104.62C841.646 1104.71 841.277 1104.74 840.914 1104.69C840.551 1104.64 840.2 1104.53 839.882 1104.34C839.564 1104.16 839.285 1103.92 839.061 1103.63C838.838 1103.34 838.673 1103.01 838.577 1102.65C838.481 1102.3 838.456 1101.93 838.502 1101.57C838.549 1101.2 838.667 1100.85 838.849 1100.54C839.031 1100.22 839.274 1099.94 839.564 1099.72C839.854 1099.49 840.185 1099.33 840.538 1099.23C845.524 1098.35 850.646 1098.62 855.512 1100.02C860.378 1101.42 864.86 1103.91 868.615 1107.31C869.185 1107.77 869.551 1108.44 869.637 1109.18C869.724 1109.91 869.523 1110.64 869.077 1111.23C868.798 1111.57 868.444 1111.83 868.043 1112.01C867.642 1112.18 867.205 1112.26 866.769 1112.23Z" fill="#263238"/>
<path d="M708.385 1156C708.385 1156 743.385 1104.92 742.231 1063.08C742.231 1063.08 876.154 1020.92 871.615 1152.92C871.615 1152.92 893.923 1037.54 781.846 1025.31C669.769 1013.08 656.769 1177.85 710.692 1231.69C710.692 1231.69 686.923 1188 708.385 1156Z" fill="#263238"/>
<path d="M718.154 1170.69C718.154 1163.08 715.134 1155.77 709.755 1150.38C704.376 1144.98 697.078 1141.94 689.462 1141.92C669 1142.46 655.923 1183.23 705.462 1197.46C712.539 1199.46 717.231 1192.77 718.154 1170.69Z" fill="#E4897B"/>
<path d="M829.385 1208.62C824.595 1215.05 820.3 1221.84 816.539 1228.92C815.231 1228.46 813.846 1228.08 812.539 1227.54C794.462 1221.15 788.154 1212.15 786.693 1204.46C786.004 1200.55 786.294 1196.54 787.539 1192.77C788.179 1190.6 789.111 1188.53 790.308 1186.62C799.707 1195.55 810.943 1202.32 823.231 1206.46C826.923 1207.85 829.385 1208.62 829.385 1208.62Z" fill="#263238"/>
<path d="M823.231 1206.31L819.308 1212.23C802.231 1206.15 791.077 1199.62 787.539 1192.62C788.179 1190.45 789.111 1188.38 790.308 1186.46C799.707 1195.39 810.943 1202.17 823.231 1206.31Z" fill="white"/>
<path d="M812.539 1227.54C794.462 1221.15 788.154 1212.15 786.692 1204.46C793.531 1206.98 799.862 1210.71 805.385 1215.46C808.965 1218.65 811.466 1222.87 812.539 1227.54Z" fill="#DE5753"/>
<path d="M787.462 1056.69C787.462 1056.69 752.154 1162 684.615 1154.77C617.077 1147.54 732.846 1020.31 732.846 1020.31C732.846 1020.31 846.769 987.769 896.385 1051.08C946 1114.38 871.846 1152.77 871.846 1152.77C871.846 1152.77 882.923 1070.15 787.462 1056.69Z" fill="#263238"/>
<path d="M733.615 1146.31C733.225 1146.29 732.847 1146.17 732.521 1145.95C732.196 1145.73 731.936 1145.43 731.769 1145.08C731.593 1144.59 731.615 1144.05 731.831 1143.57C732.046 1143.1 732.438 1142.73 732.923 1142.54C786.769 1122 785.538 1049.77 785.538 1049C785.516 1048.75 785.548 1048.5 785.632 1048.26C785.716 1048.02 785.849 1047.8 786.024 1047.62C786.199 1047.44 786.411 1047.29 786.646 1047.2C786.88 1047.11 787.132 1047.07 787.384 1047.08C787.884 1047.09 788.362 1047.29 788.729 1047.63C789.096 1047.97 789.329 1048.43 789.384 1048.92C789.384 1049.69 790.615 1124.62 734.307 1146.15L733.615 1146.31Z" fill="#263238"/>
<path d="M852 1150.23L866.154 1145.69C866.154 1145.69 858.538 1156.85 852 1150.23Z" fill="#263238"/>
<path d="M856.923 1148.62C854.286 1147.31 851.262 1147.02 848.426 1147.8C845.59 1148.58 843.139 1150.38 841.539 1152.85C843.917 1151.66 846.524 1151.01 849.18 1150.93C851.836 1150.85 854.478 1151.35 856.923 1152.38V1148.62Z" fill="#263238"/>
<path d="M752.231 1325L809.384 1354.08L808.461 1412L726.769 1364.38L752.231 1325Z" fill="#407BFF"/>
<path d="M818.077 1314.08L821.462 1349.23L858.769 1388.69L853.693 1323.77L818.077 1314.08Z" fill="#407BFF"/>
<path d="M554 916.308L530.154 854.769C530.589 851.479 530.253 848.133 529.171 844.996C528.09 841.858 526.293 839.015 523.923 836.692C507.308 824.308 473 813.077 464.385 814.385C451.846 816.231 425.923 838.923 428.154 853.769C430.385 868.615 503.615 877.769 503.615 877.769L527.923 945.231L554 916.308Z" fill="#E4897B"/>
<path d="M656.692 1464.85C656.692 1464.85 702.846 1428.15 684.461 1347.08L634.846 1122.77L549.615 891.077L507.923 912.154C507.923 912.154 577.923 1138.54 584.384 1153.85C587.692 1161.54 600.846 1279 618.769 1357.69C635.231 1430.15 656.692 1464.85 656.692 1464.85Z" fill="#407BFF"/>
<path opacity="0.6" d="M656.692 1464.85C656.692 1464.85 702.846 1428.15 684.461 1347.08L634.846 1122.77L549.615 891.077L507.923 912.154C507.923 912.154 577.923 1138.54 584.384 1153.85C587.692 1161.54 600.846 1279 618.769 1357.69C635.231 1430.15 656.692 1464.85 656.692 1464.85Z" fill="white"/>
<path d="M500.615 905.539L549.308 881.154L559.923 897.385L503 922.615L500.615 905.539Z" fill="#407BFF"/>
<path opacity="0.7" d="M500.615 905.539L549.308 881.154L559.923 897.385L503 922.615L500.615 905.539Z" fill="white"/>
<path opacity="0.6" d="M752.231 1325L809.384 1354.08L808.461 1412L726.769 1364.38L752.231 1325Z" fill="white"/>
<path opacity="0.6" d="M818.077 1314.08L821.462 1349.23L858.769 1388.69L853.693 1323.77L818.077 1314.08Z" fill="white"/>
<path d="M2441.15 1204.08H2210.69V1383.15H2441.15V1204.08Z" fill="white"/>
<path opacity="0.1" d="M2441.15 1204.08H2382.08V1383.15H2441.15V1204.08Z" fill="black"/>
<path d="M2197.46 1541.31H2458V1216.31H2374.08L2197.46 1300.85V1541.31Z" fill="#407BFF"/>
<path opacity="0.2" d="M2458 1216.31H2374.08V1541.31H2458V1216.31Z" fill="black"/>
<path opacity="0.7" d="M2346.31 1364.92H2224.31V1423.38H2346.31V1364.92Z" fill="white"/>
<path opacity="0.7" d="M2346.31 1442.92H2224.31V1451.31H2346.31V1442.92Z" fill="white"/>
<path opacity="0.7" d="M2449.85 1467.46H2382.08V1517.08H2449.85V1467.46Z" fill="white"/>
<path d="M2343.23 1194.31H2112.77V1383.15H2343.23V1194.31Z" fill="white"/>
<path opacity="0.1" d="M2343.23 1194.31H2284.15V1383.15H2343.23V1194.31Z" fill="black"/>
<path d="M2099.54 1541.31H2360.08V1216.31H2276.15L2099.54 1300.85V1541.31Z" fill="#407BFF"/>
<path opacity="0.2" d="M2360.08 1216.31H2276.15V1541.31H2360.08V1216.31Z" fill="black"/>
<path opacity="0.7" d="M2248.38 1364.92H2126.38V1423.38H2248.38V1364.92Z" fill="white"/>
<path opacity="0.7" d="M2248.38 1442.92H2126.38V1451.31H2248.38V1442.92Z" fill="white"/>
<path opacity="0.7" d="M2351.92 1467.46H2284.15V1517.08H2351.92V1467.46Z" fill="white"/>
<path d="M1937.69 2775.23H1984.85L2069.46 1596.39H2006.92L1937.69 2775.23Z" fill="#263238"/>
<path opacity="0.1" d="M1937.69 2775.23H1984.85L2065.31 1654.92L2069.46 1598.31H2006.92L2003.62 1654.92L1937.69 2775.23Z" fill="white"/>
<path opacity="0.2" d="M2003.62 1652.15H2065.31L2069.46 1598.31H2006.92L2003.62 1652.15Z" fill="black"/>
<path d="M1591.85 2775.23H1639L1646.69 1596.39H1584.15L1591.85 2775.23Z" fill="#263238"/>
<path opacity="0.1" d="M1584.08 1598.31L1585.38 1788.46L1591.77 2775.23H1638.92L1645.38 1788.46L1646.62 1598.31H1584.08Z" fill="white"/>
<path opacity="0.2" d="M1584.08 1598.31L1585.38 1790.62H1645.38L1646.62 1598.31H1584.08Z" fill="black"/>
<path d="M1091.54 2775.23H1138.69L1223.31 1596.39H1160.77L1091.54 2775.23Z" fill="#263238"/>
<path opacity="0.1" d="M1091.54 2775.23H1138.69L1219.23 1654.92L1223.31 1598.31H1160.77L1157.46 1654.92L1091.54 2775.23Z" fill="white"/>
<path opacity="0.2" d="M1157.46 1652.15H1219.23L1223.31 1598.31H1160.77L1157.46 1652.15Z" fill="black"/>
<path d="M2476.77 2775.23H2523.92L2454.62 1596.39H2392.08L2476.77 2775.23Z" fill="#263238"/>
<path opacity="0.1" d="M2392.08 1598.31L2396.31 1654.92L2476.77 2775.23H2523.85L2458 1654.92L2454.62 1598.31H2392.08Z" fill="white"/>
<path opacity="0.2" d="M2454.62 1598.31H2392.08L2396.31 1652.15H2458L2454.62 1598.31Z" fill="black"/>
<path d="M2487.62 1625.92L1127.92 1625.92C1125.74 1625.92 1123.58 1625.49 1121.56 1624.66C1119.55 1623.82 1117.72 1622.6 1116.17 1621.06C1114.63 1619.51 1113.41 1617.68 1112.57 1615.67C1111.74 1613.65 1111.31 1611.49 1111.31 1609.31V1566.92L2504.23 1566.92V1609.31C2504.23 1611.49 2503.8 1613.65 2502.97 1615.67C2502.13 1617.68 2500.91 1619.51 2499.36 1621.06C2497.82 1622.6 2495.99 1623.82 2493.97 1624.66C2491.96 1625.49 2489.8 1625.92 2487.62 1625.92Z" fill="#407BFF"/>
<path opacity="0.4" d="M2487.62 1625.92L1127.92 1625.92C1125.74 1625.92 1123.58 1625.49 1121.56 1624.66C1119.55 1623.82 1117.72 1622.6 1116.17 1621.06C1114.63 1619.51 1113.41 1617.68 1112.57 1615.67C1111.74 1613.65 1111.31 1611.49 1111.31 1609.31V1566.92L2504.23 1566.92V1609.31C2504.23 1611.49 2503.8 1613.65 2502.97 1615.67C2502.13 1617.68 2500.91 1619.51 2499.36 1621.06C2497.82 1622.6 2495.99 1623.82 2493.97 1624.66C2491.96 1625.49 2489.8 1625.92 2487.62 1625.92Z" fill="white"/>
<path opacity="0.2" d="M1111.31 1596.39L2504.23 1596.39V1566.85L1111.31 1566.85V1596.39Z" fill="black"/>
<path d="M1082.08 1574.54H2533.38C2535.57 1574.55 2537.73 1574.13 2539.76 1573.29C2541.78 1572.46 2543.61 1571.24 2545.16 1569.7C2546.7 1568.15 2547.92 1566.31 2548.76 1564.29C2549.59 1562.27 2550.01 1560.11 2550 1557.92C2550 1553.52 2548.25 1549.29 2545.13 1546.17C2542.02 1543.06 2537.79 1541.31 2533.38 1541.31H1082.08C1077.66 1541.31 1073.43 1543.06 1070.3 1546.17C1067.17 1549.28 1065.41 1553.51 1065.38 1557.92C1065.38 1560.11 1065.82 1562.28 1066.66 1564.3C1067.5 1566.32 1068.73 1568.16 1070.28 1569.7C1071.83 1571.24 1073.67 1572.47 1075.7 1573.3C1077.72 1574.13 1079.89 1574.55 1082.08 1574.54Z" fill="#407BFF"/>
<path opacity="0.4" d="M1082.08 1574.54H2533.38C2535.57 1574.55 2537.73 1574.13 2539.76 1573.29C2541.78 1572.46 2543.61 1571.24 2545.16 1569.7C2546.7 1568.15 2547.92 1566.31 2548.76 1564.29C2549.59 1562.27 2550.01 1560.11 2550 1557.92C2550 1553.52 2548.25 1549.29 2545.13 1546.17C2542.02 1543.06 2537.79 1541.31 2533.38 1541.31H1082.08C1077.66 1541.31 1073.43 1543.06 1070.3 1546.17C1067.17 1549.28 1065.41 1553.51 1065.38 1557.92C1065.38 1560.11 1065.82 1562.28 1066.66 1564.3C1067.5 1566.32 1068.73 1568.16 1070.28 1569.7C1071.83 1571.24 1073.67 1572.47 1075.7 1573.3C1077.72 1574.13 1079.89 1574.55 1082.08 1574.54Z" fill="white"/>
<path d="M2221.54 1541.15V1515.15H2239L2221.54 1505H2234.62L2217.15 1493.62H2200.62V1480.54H2219.85L2200.62 1472.92V1444.54H2219.85V1426H2239L2219.85 1419.54V1406.31H2233.54L2222.31 1395.15L2212.62 1385.38H1915.39V1398.69H1895.77L1917.62 1408.54V1419.54H1877.54V1440H1859.77L1877.54 1448.92V1471.77H1890.15V1482.69H1915.39V1515.15H1901.23L1912.85 1526.77V1541.31L2221.54 1541.15Z" fill="#407BFF"/>
<path opacity="0.7" d="M2221.54 1541.15V1515.15H2239L2221.54 1505H2234.62L2217.15 1493.62H2200.62V1480.54H2219.85L2200.62 1472.92V1444.54H2219.85V1426H2239L2219.85 1419.54V1406.31H2233.54L2222.31 1395.15L2212.62 1385.38H1915.39V1398.69H1895.77L1917.62 1408.54V1419.54H1877.54V1440H1859.77L1877.54 1448.92V1471.77H1890.15V1482.69H1915.39V1515.15H1901.23L1912.85 1526.77V1541.31L2221.54 1541.15Z" fill="white"/>
<path opacity="0.1" d="M2221.54 1541.15V1515.15H2239L2221.54 1505H2234.62L2217.15 1493.62H2200.62V1480.54H2219.85L2200.62 1472.92V1444.54H2219.85V1426H2239L2219.85 1419.54V1406.31H2233.54L2222.31 1395.15L2212.62 1385.38H2056.08V1398.69H2036.46L2058.23 1408.54V1419.54H2018.15V1440H2000.38L2018.15 1448.92V1471.77H2030.77V1482.69H2056.08V1515.15H2041.92L2053.46 1526.77V1541.31L2221.54 1541.15Z" fill="black"/>
<path opacity="0.1" d="M1917.62 1419.54H2058.23L1917.62 1414.46V1419.54Z" fill="black"/>
<path opacity="0.1" d="M1915.38 1482.69H2056.08L2056.69 1492.54L1915.38 1482.69Z" fill="black"/>
<path opacity="0.1" d="M1890.15 1471.77H2030.77L1890.15 1476.69V1471.77Z" fill="black"/>
<path opacity="0.1" d="M1915.38 1515.15H2056.08L1915.38 1510V1515.15Z" fill="black"/>
<path opacity="0.1" d="M1912.85 1526.77H2053.46V1532.15L1912.85 1526.77Z" fill="black"/>
<path opacity="0.1" d="M1877.54 1440H2018.15L1877.54 1435.54V1440Z" fill="black"/>
<path opacity="0.1" d="M1915.38 1398.69H2056.08L1915.38 1393.77V1398.69Z" fill="black"/>
<path opacity="0.1" d="M2219.85 1406.31H2077.15L2219.85 1410.69V1406.31Z" fill="black"/>
<path opacity="0.1" d="M2058.23 1419.54H2219.85L2073.31 1424.31L2058.23 1419.54Z" fill="black"/>
<path opacity="0.1" d="M2018.15 1440L2219.85 1444.54V1440H2018.15Z" fill="black"/>
<path opacity="0.1" d="M2018.15 1448.92H2117.92L2018.15 1453.77V1448.92Z" fill="black"/>
<path opacity="0.1" d="M2200.62 1472.92L2056.08 1471.77L2200.62 1468.54V1472.92Z" fill="black"/>
<path opacity="0.1" d="M2200.62 1480.54H2053.46L2200.62 1485.46V1480.54Z" fill="black"/>
<path opacity="0.1" d="M2221.54 1505H2058.23V1510L2221.54 1505Z" fill="black"/>
<path opacity="0.1" d="M2221.54 1515.15H2103.23L2221.54 1518.46V1515.15Z" fill="black"/>
<path d="M1843.08 1507.62V1532.31C1843.08 1538.62 1835.38 1541.23 1829.31 1541.23H1336.08C1329.77 1541.23 1322.15 1538.62 1322.15 1532.31V1507.62H1843.08Z" fill="#263238"/>
<path opacity="0.4" d="M1843.08 1507.62V1532.31C1843.08 1538.62 1835.38 1541.23 1829.31 1541.23H1336.08C1329.77 1541.23 1322.15 1538.62 1322.15 1532.31V1507.62H1843.08Z" fill="white"/>
<path opacity="0.2" d="M1843.08 1507.62V1532.31C1843.08 1538.62 1835.39 1541.23 1829.31 1541.23H1504C1497.69 1541.23 1490.15 1538.62 1490.15 1532.31V1507.62H1843.08Z" fill="black"/>
<path d="M1925.62 1251.31L1866.85 1517.69C1865.84 1522.02 1863.41 1525.88 1859.95 1528.67C1856.5 1531.45 1852.21 1533.01 1847.77 1533.08H1527.08C1525.08 1533.03 1523.12 1532.53 1521.36 1531.6C1519.59 1530.67 1518.06 1529.35 1516.89 1527.73C1515.72 1526.12 1514.94 1524.25 1514.61 1522.28C1514.29 1520.31 1514.42 1518.29 1515 1516.38L1573.62 1252.08C1574.82 1248.04 1577.37 1244.54 1580.84 1242.16C1584.31 1239.78 1588.5 1238.67 1592.69 1239H1913.46C1922.08 1238.69 1927.46 1242.62 1925.62 1251.31Z" fill="#263238"/>
<path opacity="0.4" d="M1925.62 1251.31L1866.85 1517.69C1865.84 1522.02 1863.41 1525.88 1859.95 1528.67C1856.5 1531.45 1852.21 1533.01 1847.77 1533.08H1537.92C1535.93 1533.03 1533.97 1532.53 1532.2 1531.6C1530.44 1530.67 1528.91 1529.35 1527.74 1527.73C1526.57 1526.12 1525.79 1524.25 1525.46 1522.28C1525.13 1520.31 1525.26 1518.29 1525.85 1516.38L1584.54 1252.08C1585.73 1248.04 1588.28 1244.53 1591.75 1242.14C1595.23 1239.76 1599.42 1238.65 1603.62 1239H1913.46C1922.08 1238.69 1927.46 1242.62 1925.62 1251.31Z" fill="white"/>
<path opacity="0.2" d="M1767.46 1386.69C1767.46 1409.77 1743 1428 1725.08 1428C1707.15 1428 1696.54 1409.46 1702 1386.69C1707.46 1363.92 1725.08 1346.15 1742.46 1345.46C1737.38 1368.54 1748.31 1386.69 1766.15 1386.69H1767.46Z" fill="black"/>
</svg>
