<svg id="Capa_1" data-name="Capa 1" xmlns="http://www.w3.org/2000/svg" viewBox="0 0 719.14 529.67"><defs><style>.cls-1{fill:#fde9f6;}.cls-2,.cls-20{fill:#0a3891;}.cls-10,.cls-11,.cls-13,.cls-14,.cls-18,.cls-19,.cls-3,.cls-8{fill:none;}.cls-10,.cls-19,.cls-3,.cls-8{stroke:#fcfbff;}.cls-18,.cls-3{stroke-linecap:round;stroke-linejoin:round;}.cls-10,.cls-3{stroke-width:1.94px;}.cls-4{fill:#f3f5fc;}.cls-5{fill:#fff;}.cls-6{fill:#ababd6;}.cls-7{fill:#f9f9f9;}.cls-10,.cls-11,.cls-13,.cls-14,.cls-19,.cls-20,.cls-8{stroke-miterlimit:10;}.cls-8{stroke-width:1.78px;}.cls-9{fill:#ded8e5;}.cls-11{stroke:#2e1189;}.cls-11,.cls-14,.cls-19{stroke-width:1.99px;}.cls-12{fill:#fbaca2;}.cls-13{stroke:#f0857e;stroke-width:1px;}.cls-14{stroke:#ababd6;}.cls-15{fill:#131313;}.cls-16{fill:#400e0e;}.cls-17{fill:#330911;}.cls-18{stroke:#100b08;stroke-width:1.1px;}.cls-20{stroke:#0a3891;stroke-width:2px;}</style></defs><path class="cls-1" d="M1789.25,515c0-131.7-106.76-238.47-238.47-238.47S1312.31,383.29,1312.31,515a237.45,237.45,0,0,0,50.41,146.63h376.13A237.44,237.44,0,0,0,1789.25,515Z" transform="translate(-1186.99 -233)"/><rect class="cls-2" x="137.19" y="20.97" width="91.6" height="29.76" rx="2.55"/><line class="cls-3" x1="150.79" y1="31.18" x2="209.53" y2="31.18"/><line class="cls-3" x1="150.79" y1="39.17" x2="172.51" y2="39.17"/><path class="cls-2" d="M1401.19,280.5v10.4a.36.36,0,0,1-.59.29l-13.46-10.69Z" transform="translate(-1186.99 -233)"/><path class="cls-4" d="M89.36,253.35h62.72a7.05,7.05,0,0,1,7.05,7.05V319a7.05,7.05,0,0,1-7.05,7.05H91.61a9.31,9.31,0,0,1-9.31-9.31V260.4A7.05,7.05,0,0,1,89.36,253.35Z"/><path class="cls-5" d="M1319.49,514.22a7.32,7.32,0,0,0-10.37.11l-1.87,1.9-1.92-1.89A7.33,7.33,0,1,0,1295,524.79l7.13,7a.1.1,0,0,1,0,0,7.35,7.35,0,0,0,10.37-.11l7-7.17A7.32,7.32,0,0,0,1319.49,514.22Z" transform="translate(-1186.99 -233)"/><path class="cls-6" d="M567.06,198.72h70.18a7.89,7.89,0,0,1,7.89,7.89v65.56a7.89,7.89,0,0,1-7.89,7.89H569.58a10.41,10.41,0,0,1-10.41-10.41v-63A7.89,7.89,0,0,1,567.06,198.72Z"/><path class="cls-7" d="M1784.34,484.72c6.06.11,12.21.19,17.79-.2,1.76-.12,3.29-2.93,1.14-3.81a4,4,0,0,0,2.21-1.92,1.89,1.89,0,0,0-1.07-2.51c2.11.52,2.94-2.82,1.29-3.9a4.88,4.88,0,0,0,1.78-2.84,2.85,2.85,0,0,0-1.28-2.94,4.52,4.52,0,0,0-2.19-.38l-7.57-.06c.68-4,.89-8.25-1.12-11.72-.6-1-2.22-2.3-3.51-1.49s-.88,2.63-.82,3.81a13.3,13.3,0,0,1-6.88,12.16S1784.4,479.39,1784.34,484.72Z" transform="translate(-1186.99 -233)"/><rect class="cls-7" x="585.98" y="235.92" width="9.17" height="15.78"/><circle class="cls-8" cx="573.88" cy="24.93" r="7.82"/><circle class="cls-8" cx="40.23" cy="360.38" r="7.82"/><path class="cls-8" d="M1905.23,446.87a5.26,5.26,0,1,1-5.26-5.26A5.26,5.26,0,0,1,1905.23,446.87Z" transform="translate(-1186.99 -233)"/><path class="cls-8" d="M1248.81,298.56s-2.65,4.43,1,7.07,6.78-2.29,10.8.76.68,6.76.68,6.76" transform="translate(-1186.99 -233)"/><path class="cls-8" d="M1870.51,540.91s-2,6.1,3.1,8.33,7.61-4.62,13.33-2,2.65,8,2.65,8" transform="translate(-1186.99 -233)"/><path class="cls-6" d="M1261.67,437.74a6.78,6.78,0,1,1-6.78-6.77A6.78,6.78,0,0,1,1261.67,437.74Z" transform="translate(-1186.99 -233)"/><path class="cls-2" d="M1839.88,331.82a6.78,6.78,0,1,1-6.78-6.78A6.77,6.77,0,0,1,1839.88,331.82Z" transform="translate(-1186.99 -233)"/><path class="cls-6" d="M1827.74,598.8a5.18,5.18,0,1,1-5.18-5.18A5.18,5.18,0,0,1,1827.74,598.8Z" transform="translate(-1186.99 -233)"/><path class="cls-9" d="M1509.65,238.18a5.18,5.18,0,1,1-5.17-5.18A5.18,5.18,0,0,1,1509.65,238.18Z" transform="translate(-1186.99 -233)"/><line class="cls-3" x1="637.1" y1="165.42" x2="682.02" y2="165.42"/><line class="cls-10" x1="30.14" y1="153.13" x2="109.43" y2="153.13"/><line class="cls-3" x1="361.87" y1="5.18" x2="409.55" y2="5.18"/><polygon class="cls-2" points="412.12 286.52 440.06 429.37 385.91 429.37 365.16 334.96 360.38 334.67 360.31 429.37 306.32 429.37 309.08 286.52 412.12 286.52"/><line class="cls-11" x1="351.24" y1="334.01" x2="382.06" y2="334.01"/><path class="cls-12" d="M1624,419.25l51-13a19.35,19.35,0,0,0,13.5-23.5h0a19.35,19.35,0,0,0-24-13.75l-51,14.49Z" transform="translate(-1186.99 -233)"/><polygon class="cls-9" points="442.62 141.19 392.86 147.73 407.09 198.52 454.61 188.62 442.62 141.19"/><path class="cls-12" d="M1653.36,310.94c1.28-8-1.82-18.19-1.82-18.19l1.13-17.92a3.35,3.35,0,0,0-2.53-3.69h0a3.35,3.35,0,0,0-4.05,2.43l-1.5,11.57-1.59,0-2.15-18.6a3.82,3.82,0,0,0-4.49-3.48h0a3.82,3.82,0,0,0-3.14,3.86l1.42,20.13-1.63.32-5.7-20.06a4.22,4.22,0,0,0-5.34-3h0a4.21,4.21,0,0,0-2.85,5l5.89,23-2.07.56-7.73-16.14a3.51,3.51,0,0,0-5-1.48h0a3.52,3.52,0,0,0-1.49,4.17l7.84,21.47-6.49-.16a5.14,5.14,0,0,0-5.1,5.65h0a5.13,5.13,0,0,0,3.81,4.46l8.54,2.07a36.13,36.13,0,0,0,15.34,11.48S1652.39,317,1653.36,310.94Z" transform="translate(-1186.99 -233)"/><path class="cls-13" d="M1616.58,300.89s12.39-.73,19.74,6.25" transform="translate(-1186.99 -233)"/><polygon class="cls-12" points="500.78 147.61 466.38 77.94 444.67 87.08 466.54 163.73 500.78 147.61"/><line class="cls-13" x1="460.03" y1="140.91" x2="463.4" y2="152.72"/><polygon class="cls-9" points="348.38 144.97 307.65 153.4 309.08 286.52 412.12 286.52 415.36 149.75 376.59 146.4 348.38 144.97"/><line class="cls-14" x1="414.21" y1="197.07" x2="414.21" y2="179.88"/><path class="cls-6" d="M322.62,184.71h25.23a0,0,0,0,1,0,0v13.86a11.38,11.38,0,0,1-11.38,11.38H334a11.38,11.38,0,0,1-11.38-11.38V184.71a0,0,0,0,1,0,0Z"/><path class="cls-12" d="M1465.1,420.22l-29.38,53.21a19.52,19.52,0,0,0,7.33,26.34h0a19.52,19.52,0,0,0,26.31-6.54l30.5-48.66Z" transform="translate(-1186.99 -233)"/><path class="cls-9" d="M1456,427.63l42.15,27.05,6.77-32.31c7.13-11.51,16.19-25.41,4.79-32.72h0a24.8,24.8,0,0,0-34.3,7.54Z" transform="translate(-1186.99 -233)"/><line class="cls-14" x1="308.39" y1="219.9" x2="308.39" y2="183.71"/><polygon class="cls-12" points="263.18 269.21 340.32 267.1 345.63 242.18 258.45 231.15 263.18 269.21"/><line class="cls-13" x1="297.51" y1="236.07" x2="277.43" y2="233.55"/><path class="cls-12" d="M1527.49,476.2s9.87-13.35,21.48-.05l-4.62,9.16Z" transform="translate(-1186.99 -233)"/><path class="cls-15" d="M1539.1,462.05l-3,18.67,23.54,2.62,3.73-17.93a3.37,3.37,0,0,0-2.89-4l-17.59-2.12A3.37,3.37,0,0,0,1539.1,462.05Z" transform="translate(-1186.99 -233)"/><path class="cls-12" d="M1532.46,474.61l27.84.69a6,6,0,0,1,5.8,5.95h0a5.93,5.93,0,0,1-3.36,5.35l-1.49.72s2.85,21.09-13.89,23.6-26.1-10.71-26.1-10.71Z" transform="translate(-1186.99 -233)"/><polygon class="cls-12" points="378.13 146.45 377.75 104.41 347.22 104.41 346.54 145.35 378.13 146.45"/><path class="cls-16" d="M1531.69,349.68c-1.58-3.63,10.6,20.11,23,18.78,10.67-1.15,11.11-20.47,11.11-20.47s-3.79,6.1-15,6.12C1538.24,354.12,1531.69,349.68,1531.69,349.68Z" transform="translate(-1186.99 -233)"/><path class="cls-17" d="M1581,314.22c-3.27,18.74-14.17,34.52-31.64,34.52s-29.48-15.59-31.63-34.52c-2.45-21.47,14.16-35.74,31.63-35.74S1584.34,295,1581,314.22Z" transform="translate(-1186.99 -233)"/><path class="cls-12" d="M1576.69,324s2.28-3.62,7-1.84,2.57,13.19-4.47,14.65a5.58,5.58,0,0,1-4.51-1.18S1576.42,327.19,1576.69,324Z" transform="translate(-1186.99 -233)"/><path class="cls-18" d="M1582.74,326.18s-3.94-1.32-6.73,4.48" transform="translate(-1186.99 -233)"/><path class="cls-12" d="M1522.75,324s-2.28-3.62-7-1.84-2.57,13.19,4.47,14.65a5.58,5.58,0,0,0,4.51-1.18S1523,327.19,1522.75,324Z" transform="translate(-1186.99 -233)"/><path class="cls-18" d="M1516.7,326.18s3.94-1.32,6.73,4.48" transform="translate(-1186.99 -233)"/><path class="cls-12" d="M1577.14,314.16c0,7.31-.76,22.61-5.5,31.69-4.45,8.52-11.81,13.11-21.45,13.38-7.7.22-18.79-7-22.6-14.31-5.76-11.07-5.49-30.62-5.49-30.62s0-26.12,27.22-26.12C1578,288.18,1577.14,314.16,1577.14,314.16Z" transform="translate(-1186.99 -233)"/><path class="cls-15" d="M1540.11,323a2.11,2.11,0,1,1-2.1-2.11A2.1,2.1,0,0,1,1540.11,323Z" transform="translate(-1186.99 -233)"/><path class="cls-15" d="M1561.85,323a2.11,2.11,0,1,1-2.11-2.11A2.1,2.1,0,0,1,1561.85,323Z" transform="translate(-1186.99 -233)"/><path class="cls-15" d="M1543.7,314.45l-14.93,3.86s.68-4.19,6.79-5.71S1543.7,314.45,1543.7,314.45Z" transform="translate(-1186.99 -233)"/><path class="cls-15" d="M1553.19,314.45l14.93,3.86s-.68-4.19-6.79-5.71S1553.19,314.45,1553.19,314.45Z" transform="translate(-1186.99 -233)"/><polyline class="cls-18" points="359.92 95.35 359.92 100.69 363.8 100.69"/><path class="cls-5" d="M1561.05,338.18h-22.86s.64,6,10.84,6C1558.42,344.22,1561.05,338.18,1561.05,338.18Z" transform="translate(-1186.99 -233)"/><path class="cls-17" d="M1522.75,324s10.19-15.63,2.18-27.14c0,0-5,.08-4.86,20Z" transform="translate(-1186.99 -233)"/><path class="cls-17" d="M1576.69,324s-10.19-15.63-2.18-27.14c0,0,5,.08,4.86,20Z" transform="translate(-1186.99 -233)"/><path class="cls-17" d="M1522.21,296.1s13.16,14.88,40.27,12c24.21-2.6,26.31-19.58,20.55-26.29-8.24-9.59-26.41-6-36.12,4.68Z" transform="translate(-1186.99 -233)"/><polygon class="cls-12" points="346.54 145.35 362.63 166.05 378.13 146.45 346.54 145.35"/><polygon class="cls-6" points="346.54 142.43 337.04 147.32 347.77 168.83 358.5 160.74 346.54 142.43"/><polygon class="cls-6" points="378.21 142.43 388.9 147.46 377.6 168.83 366.96 160.51 378.21 142.43"/><line class="cls-19" y1="429.45" x2="613.94" y2="429.45"/><path class="cls-20" d="M1398.13,712.54H1415c9.25,0,14.21,4.9,14.21,11.87,0,5.73-3.45,9.45-7.45,10.56a12.2,12.2,0,0,1,9.18,11.93c0,9.66-7.25,13.94-15.66,13.94h-17.12Zm15.6,20.77c8.35,0,11.52-3.1,11.52-8.69,0-4.76-3.31-8.63-10.07-8.63h-13.39v17.32Zm-11.94,24.08h13.59c6.35,0,11.66-3.17,11.66-10.28,0-6.14-3.93-10.35-13.66-10.35h-11.59Z" transform="translate(-1186.99 -233)"/><path class="cls-20" d="M1440.29,710h3.45v6.69h-3.45Zm0,16.35h3.45v34.5h-3.45Z" transform="translate(-1186.99 -233)"/><path class="cls-20" d="M1455.82,744c.07,8.9,4.55,14.42,11.18,14.42,6.48,0,8.69-3.66,9.93-6.49h3.52c-1.45,4.56-5.11,9.73-13.59,9.73-10.49,0-14.56-9-14.56-17.8,0-9.87,4.9-18.36,15-18.36,10.63,0,14,9.18,14,15.67,0,1,0,1.93-.07,2.83Zm21.87-3c-.07-6.83-3.79-12.21-10.56-12.21-7.1,0-10.35,5-11.11,12.21Z" transform="translate(-1186.99 -233)"/><path class="cls-20" d="M1489.7,735c0-3,0-5.94-.07-8.7H1493c.14,1.11.2,5.59.14,6.56,1.51-3.52,4.34-7.39,11.45-7.39,6.14,0,11.59,3.45,11.59,13v22.35h-3.45V739c0-6.14-2.55-10.14-8.55-10.14-8.21,0-11,6.83-11,14.35v17.59h-3.45Z" transform="translate(-1186.99 -233)"/><path class="cls-20" d="M1525.92,726.34c5.59,15.8,9.45,26.57,10.77,31h.06c.76-2.55,4.63-12.83,11.32-31h3.66l-13,34.5h-4.14l-12.29-34.5Z" transform="translate(-1186.99 -233)"/><path class="cls-20" d="M1559.25,744c.07,8.9,4.55,14.42,11.18,14.42,6.48,0,8.69-3.66,9.93-6.49h3.52c-1.45,4.56-5.1,9.73-13.59,9.73-10.49,0-14.56-9-14.56-17.8,0-9.87,4.9-18.36,15-18.36,10.63,0,14,9.18,14,15.67,0,1,0,1.93-.07,2.83Zm21.87-3c-.07-6.83-3.79-12.21-10.56-12.21-7.1,0-10.35,5-11.1,12.21Z" transform="translate(-1186.99 -233)"/><path class="cls-20" d="M1593.13,735c0-3,0-5.94-.07-8.7h3.38c.14,1.11.21,5.59.14,6.56,1.51-3.52,4.34-7.39,11.45-7.39,6.14,0,11.59,3.45,11.59,13v22.35h-3.45V739c0-6.14-2.55-10.14-8.55-10.14-8.21,0-11,6.83-11,14.35v17.59h-3.45Z" transform="translate(-1186.99 -233)"/><path class="cls-20" d="M1630.94,710h3.45v6.69h-3.45Zm0,16.35h3.45v34.5h-3.45Z" transform="translate(-1186.99 -233)"/><path class="cls-20" d="M1672.34,710v40.92c0,3.31,0,6.48.07,9.93h-3.32c-.13-.83-.2-4.07-.2-5.79-1.73,4.21-5.59,6.62-11.6,6.62-9,0-14.35-7.31-14.35-17.66,0-10.63,5.87-18.5,15.25-18.5,6.9,0,9.66,3,10.7,5.18V710Zm-25.74,33.88c0,9.45,4.9,14.56,10.83,14.56,9.11,0,11.6-6.28,11.6-15.67,0-8.9-2.14-14-11-14C1651.22,728.76,1646.6,734.21,1646.6,743.87Z" transform="translate(-1186.99 -233)"/><path class="cls-20" d="M1711.6,743.52c0,9.6-5.32,18.15-15.6,18.15-9.31,0-15.11-7.66-15.11-18.08,0-9.86,5.45-18.08,15.46-18.08C1705.53,725.51,1711.6,732.69,1711.6,743.52Zm-27,.07c0,8.21,4.41,14.84,11.73,14.84s11.66-6.14,11.66-14.84c0-8.14-4.14-14.83-11.8-14.83C1688.28,728.76,1684.55,735.31,1684.55,743.59Z" transform="translate(-1186.99 -233)"/><path class="cls-20" d="M1742.92,745.39l-.34-24.29v-8.56h3.79v8.56l-.34,24.29Zm-.27,15.52V752.7h3.52v8.21Z" transform="translate(-1186.99 -233)"/></svg>